<?xml version="1.0" standalone="no"?>
<!DOCTYPE svg PUBLIC "-//W3C//DTD SVG 1.1//EN" "http://www.w3.org/Graphics/SVG/1.1/DTD/svg11.dtd" >
<svg xmlns="http://www.w3.org/2000/svg" xmlns:xlink="http://www.w3.org/1999/xlink" version="1.1">
<metadata></metadata>
<defs>
<font id="marionregular" horiz-adv-x="954" >
<font-face units-per-em="2048" ascent="1434" descent="-614" />
<missing-glyph horiz-adv-x="614" />
<glyph horiz-adv-x="0" />
<glyph unicode="&#xd;" horiz-adv-x="681" />
<glyph horiz-adv-x="655" />
<glyph unicode=" "  horiz-adv-x="614" />
<glyph unicode="&#x09;" horiz-adv-x="614" />
<glyph unicode="&#xa0;" horiz-adv-x="614" />
<glyph unicode="!" horiz-adv-x="614" d="M145 102q0 133 142 134q133 -1 133 -134t-133 -133q-141 0 -142 133zM170 1239q0 150 125 150t125 -150q0 -43 -4 -84t-15.5 -123t-32 -229.5t-51.5 -403.5h-61q-25 256 -41 403.5t-26.5 229.5t-14.5 123t-4 84z" />
<glyph unicode="&#x22;" horiz-adv-x="643" d="M68 1319q0 70 94 70q86 0 86 -70q0 -55 -18.5 -166t-53.5 -279h-45q-31 168 -47 279t-16 166zM397 1319q0 70 92 70q86 0 86 -70q0 -55 -17 -166t-54 -279h-45q-61 334 -62 445z" />
<glyph unicode="#" horiz-adv-x="1140" d="M68 430l16 107h233l48 258h-226q6 41 12.5 67.5t10.5 42.5h227l92 428h117l-86 -428h242l94 428h117l-84 -428h194l-16 -110h-211l-47 -258h203l-17 -107h-209l-94 -430h-117l92 430h-247l-86 -430h-125l94 430h-227zM434 537h250l47 258h-242z" />
<glyph unicode="$" horiz-adv-x="985" d="M68 258q0 164 86 164q70 0 69 -80q0 -23 -11 -57.5t-11 -75.5q31 -139 250 -156v572q-18 0 -23 6q-61 27 -122.5 55.5t-111 67.5t-80 90t-30.5 123q0 326 367 342v166q0 23 30 22q39 0 39 -22v-166q336 -14 336 -256q0 -109 -78 -109t-78 70q0 16 8.5 31.5t8.5 46.5 q0 135 -197 147v-467q20 -14 47 -22q63 -29 127 -60t113 -73t80 -99t31 -137q0 -420 -398 -420v-178q0 -25 -31 -25q-39 0 -38 25v178q-383 25 -383 297zM223 1038q0 -92 60.5 -143t167.5 -92v436q-227 -12 -228 -201zM520 53q258 10 258 258q0 59 -19.5 101.5t-54 74 t-82 56t-102.5 51.5v-541z" />
<glyph unicode="%" horiz-adv-x="1556" d="M68 967q0 360 383 360q258 0 258 -313q-1 -367 -361 -367q-281 0 -280 320zM215 913q0 -211 150 -211q250 0 249 312q0 264 -155 264q-244 0 -244 -365zM336 0l772 1358h111l-781 -1358h-102zM848 305q0 356 383 357q258 0 258 -312q-1 -366 -361 -366q-281 0 -280 321z M995 250q1 -211 148 -211q252 0 252 311q0 266 -158 266q-242 0 -242 -366z" />
<glyph unicode="&#x26;" horiz-adv-x="1538" d="M68 350q0 133 70.5 249t240.5 204q-39 63 -65.5 133t-26.5 125q0 311 311 311q313 0 313 -258q0 -102 -78.5 -186t-195.5 -148q76 -106 160 -215.5t182 -228.5q74 78 111.5 149.5t37.5 139.5q0 147 -180 147v62h484v-62q-70 0 -112 -43t-83 -108q-18 -35 -33.5 -73 t-35 -80t-51.5 -88t-83 -95q80 -66 141.5 -117t108.5 -51q31 0 64.5 14t62.5 34.5t50.5 44t27.5 40.5l53 -25q-6 -43 -29.5 -88t-62.5 -79.5t-94.5 -57.5t-124.5 -23q-184 0 -330 160q-160 -160 -381 -160q-453 0 -452 373zM248 506q0 -403 350 -404q63 0 128.5 16.5 t131.5 82.5q-131 147 -242.5 277t-203.5 272q-164 -90 -164 -244zM451 1122q0 -95 147 -288q172 164 172 272q0 203 -172 203q-147 0 -147 -187z" />
<glyph unicode="'" horiz-adv-x="315" d="M68 1319q0 70 94 70q86 0 86 -70q0 -55 -18.5 -166t-53.5 -279h-45q-31 168 -47 279t-16 166z" />
<glyph unicode="(" horiz-adv-x="573" d="M68 537q0 266 105.5 484t315.5 398l15 -47q-150 -152 -222.5 -361.5t-72.5 -473.5q0 -444 295 -809l-15 -47q-211 217 -316 426.5t-105 429.5z" />
<glyph unicode=")" horiz-adv-x="573" d="M68 -281q150 147 223.5 357.5t73.5 478.5q0 219 -73 421t-224 388l16 47q215 -217 317.5 -428t102.5 -428q0 -268 -105.5 -485t-314.5 -398z" />
<glyph unicode="*" horiz-adv-x="917" d="M68 940q0 74 139 74h133q43 0 43 18q0 20 -39 40t-86 42.5t-86 48t-39 58.5q0 29 18.5 46t47.5 17q33 0 65.5 -31.5t61 -70.5t53 -71t41.5 -32q14 0 14 27q0 59 -19.5 116.5t-19.5 110.5q0 41 19.5 59.5t48.5 18.5q23 0 44 -18.5t21 -59.5q0 -27 -7 -54.5t-15 -56 t-15.5 -58t-7.5 -60.5q0 -25 15 -25q20 0 46.5 32t56.5 71t60.5 70.5t59.5 31.5t47 -18.5t18 -46.5q0 -33 -38.5 -61t-87 -51.5t-87 -41.5t-38.5 -35q2 -10 26.5 -14t54.5 -4h39q16 2 34 2h34q127 0 127 -78q0 -25 -17.5 -45.5t-50.5 -20.5q-29 0 -63.5 15.5t-68.5 34 t-64.5 34t-55.5 15.5q-12 0 -12 -17q0 -20 23.5 -50t51.5 -63.5t51.5 -67.5t23.5 -58q0 -31 -19.5 -49.5t-44.5 -18.5q-43 0 -64.5 45t-33.5 99.5t-20.5 99.5t-24.5 45q-20 0 -30.5 -45t-23 -99.5t-33 -99.5t-61.5 -45q-29 0 -47 18.5t-18 51.5q0 27 23.5 63.5t53 71.5 t53 62.5t23.5 39.5q0 16 -18 17q-20 0 -50 -15.5t-63.5 -33t-68.5 -33t-64 -15.5q-35 0 -52 19.5t-17 48.5z" />
<glyph unicode="+" horiz-adv-x="1122" d="M96 621v133h389v395h140v-395h391v-133h-391v-381h-140v381h-389z" />
<glyph unicode="," horiz-adv-x="516" d="M102 -281q68 43 104 79t52 66t19.5 53.5t3.5 43.5q0 47 -45 47q-119 0 -119 103q0 131 125 131q164 0 164 -195q0 -125 -70 -215t-203 -160z" />
<glyph unicode="-" horiz-adv-x="620" d="M68 461v125h485v-125h-485z" />
<glyph unicode="." horiz-adv-x="479" d="M104 102q0 133 140 134q131 0 131 -134q0 -133 -131 -133q-139 0 -140 133z" />
<glyph unicode="/" horiz-adv-x="745" d="M27 -111l577 1500h94l-577 -1500h-94z" />
<glyph unicode="0" horiz-adv-x="1017" d="M68 641q0 143 31.5 276.5t90 236.5t142.5 164.5t188 61.5q96 0 175 -56t135.5 -150.5t87 -218.5t30.5 -257q0 -135 -30.5 -266t-90 -233.5t-144.5 -166t-194 -63.5q-102 0 -181 54.5t-132 146.5t-80.5 214t-27.5 257zM248 723q0 -156 16.5 -278.5t50 -208.5t84.5 -132.5 t121 -46.5q80 0 128 46.5t76 124t37 179t9 211.5q0 94 -11 211t-44 219.5t-93.5 172t-156.5 69.5q-61 0 -102 -54t-67 -138t-37 -183.5t-11 -191.5z" />
<glyph unicode="1" horiz-adv-x="806" d="M68 1178v61q76 12 129 23.5t94 29t80 44t88 67.5l53 -14q-8 -41 -11 -73t-3 -61v-1060q0 -133 241 -134v-61h-663v61q242 0 241 134v897q0 86 -75 86h-174z" />
<glyph unicode="2" horiz-adv-x="1001" d="M68 47q137 135 252.5 262t200.5 247t133 236.5t48 231.5q0 123 -67.5 183.5t-192.5 60.5q-117 0 -175 -42t-58 -118q70 -20 70 -76q0 -100 -86 -100q-84 0 -84 133q0 154 102 233.5t309 79.5q369 0 369 -340q0 -117 -37 -221t-113.5 -207.5t-194.5 -212t-280 -233.5h365 q55 0 94 6t67.5 24.5t49 52.5t41.5 89l53 -8l-78 -328h-633q-41 0 -79 -2t-68 -6z" />
<glyph unicode="3" horiz-adv-x="942" d="M47 174q0 98 103 98q72 0 71 -65q0 -59 -41 -72q6 -76 135 -76q352 0 353 340q0 289 -228 289h-102q-23 0 -23 33q0 39 23 39q147 0 219 77.5t72 219.5q0 225 -197 225q-188 0 -188 -86q39 -20 39 -68q0 -88 -82 -88t-82 84q0 256 368 256q315 0 316 -299 q0 -233 -236 -295v-18q307 -31 307 -365q0 -432 -505 -432q-322 0 -322 203z" />
<glyph unicode="4" horiz-adv-x="1003" d="M43 391v76l655 922l70 -9q-23 -80 -23 -163v-656q0 -39 31 -39h78q29 0 53.5 4t46.5 11v-146h-178q-31 0 -31 -41v-203q0 -86 93 -86v-61h-367v61q102 0 102 86v203q0 41 -41 41h-489zM168 522h364q41 0 41 39v531z" />
<glyph unicode="5" horiz-adv-x="948" d="M53 141q0 76 64 76q61 0 61 -61q0 -33 -31 -54q43 -55 189 -55q350 0 350 375q0 342 -287 342q-141 0 -213 -102l-69 30l114 674q82 -10 160 -16.5t154 -6.5q213 0 295 70h24q-94 -242 -344 -242q-113 0 -213 23l-65 -377q94 57 211 57q430 0 430 -452q0 -453 -516 -453 q-313 0 -314 172z" />
<glyph unicode="6" horiz-adv-x="1011" d="M68 453q0 221 43 394t122.5 290.5t192.5 180t254 62.5q176 0 176 -131q0 -80 -72 -80q-61 0 -61 52q0 31 18 47q-41 18 -88 18q-57 0 -124.5 -33.5t-126 -110.5t-98.5 -199t-40 -296q90 147 328 148q78 0 142.5 -26t110.5 -72t71.5 -108.5t25.5 -135.5 q0 -231 -103.5 -357.5t-310.5 -126.5q-229 0 -344.5 131t-115.5 353zM264 391q0 -63 16.5 -123.5t49 -108.5t81.5 -77t117 -29q57 0 101.5 25.5t74 70t44 101.5t14.5 123q0 172 -69.5 250.5t-188.5 78.5q-240 0 -240 -311z" />
<glyph unicode="7" horiz-adv-x="854" d="M43 1030l47 334q41 -4 89 -5t114 -1h561v-88q-37 -61 -73 -142t-68.5 -167.5t-60 -169t-48.5 -150.5q-39 -131 -64.5 -267t-25.5 -272q0 -133 -115 -133q-119 0 -118 117q0 57 20.5 135t49 160t62 158.5t60.5 136.5q33 72 72 148.5t73.5 145t62.5 123t40 83.5 q0 18 -21 18h-471q-80 0 -139 -186z" />
<glyph unicode="8" horiz-adv-x="1021" d="M68 336q0 66 21.5 119t57 94t84 72.5t103.5 54.5q-47 31 -86 63.5t-68.5 71.5t-46 90t-16.5 119q0 166 107.5 263t301.5 97q68 0 133.5 -20.5t118.5 -59t86 -95t33 -130.5q0 -55 -19.5 -100t-52 -83t-74.5 -69.5t-87 -56.5q129 -55 208.5 -152.5t79.5 -238.5 q0 -100 -33.5 -176t-94 -127.5t-143.5 -77t-179 -25.5q-86 0 -165 23.5t-139.5 70t-95 115t-34.5 158.5zM211 328q0 -66 24.5 -119t66.5 -93t98.5 -61.5t117.5 -21.5q55 0 107.5 19.5t93.5 54t65.5 83t24.5 105.5q0 82 -36 134t-91 89t-121 62.5t-123 54.5q-57 -12 -99 -41 t-70.5 -70t-43 -91t-14.5 -105zM270 1092q0 -68 29 -117t75 -85t103.5 -57.5t114.5 -33.5q92 49 130 113.5t38 148.5q0 111 -69.5 174t-180.5 63q-98 0 -169 -51t-71 -155z" />
<glyph unicode="9" horiz-adv-x="1021" d="M68 905q0 88 27.5 173t81.5 152.5t133 108.5t184 41q459 0 458 -565q0 -178 -39 -332.5t-113.5 -268.5t-186 -179.5t-255.5 -65.5q-193 0 -192 142q0 72 76 71q57 0 57 -49q0 -32 -23 -61q43 -18 93 -19q68 0 137 36t124.5 108.5t91.5 183.5t36 262q-51 -74 -125 -115 t-201 -41q-74 0 -139.5 32t-115.5 88.5t-79.5 132t-29.5 165.5zM260 952q0 -356 256 -356q117 0 179.5 85t62.5 257q0 195 -65.5 277.5t-198.5 82.5q-119 0 -176.5 -80.5t-57.5 -265.5z" />
<glyph unicode=":" horiz-adv-x="483" d="M102 102q0 133 140 134q131 0 131 -134q0 -133 -131 -133q-139 0 -140 133zM102 711q0 131 140 131q131 0 131 -131q0 -133 -131 -133q-139 0 -140 133z" />
<glyph unicode=";" horiz-adv-x="491" d="M90 -281q68 43 104.5 79t53 66t19.5 53.5t3 43.5q0 47 -49 47q-115 0 -115 103q0 131 123 131q166 0 166 -195q0 -125 -69.5 -215t-204.5 -160zM98 711q0 131 142 131q129 0 129 -131q0 -133 -129 -133q-141 0 -142 133z" />
<glyph unicode="&#x3c;" horiz-adv-x="837" d="M68 653v70l702 330v-117l-539 -246l539 -248v-118z" />
<glyph unicode="=" horiz-adv-x="1030" d="M90 461v125h850v-125h-850zM90 772v125h850v-125h-850z" />
<glyph unicode="&#x3e;" horiz-adv-x="837" d="M68 330v116l538 244l-538 250v119l702 -330v-72z" />
<glyph unicode="?" horiz-adv-x="774" d="M82 1178q0 49 20.5 85.5t56.5 61.5t84 36t103 11q80 0 145.5 -18.5t113.5 -55t75 -91t27 -124.5q0 -84 -25 -143t-62.5 -105.5t-81.5 -83t-82 -75.5t-62.5 -85t-24.5 -108v-84h-54q-23 49 -22 138q0 61 17.5 109t44 88t58 77t58.5 77t44 87t17 108q0 88 -41.5 137.5 t-152.5 49.5q-29 0 -63.5 -11.5t-45.5 -41.5v-15q0 -8 5.5 -12t5.5 -12q0 -102 -88 -103q-70 0 -70 103zM199 102q0 133 139 134q133 -1 133 -134t-133 -133q-139 0 -139 133z" />
<glyph unicode="@" horiz-adv-x="1454" d="M68 662q0 696 702 696q616 0 616 -547q0 -522 -413 -522q-127 0 -127 135v13t2 16q-100 -156 -234 -156q-47 0 -88 14.5t-71.5 47t-48 85t-17.5 125.5q0 236 96.5 344.5t253.5 108.5q164 0 187 -139l39 114h125l-148 -514q6 -141 70 -141q135 0 207.5 125t72.5 344 q0 444 -514 444q-602 0 -602 -593q0 -592 594 -592q248 0 467 172l47 -56q-203 -209 -536 -209q-680 0 -680 685zM545 569q0 -117 26.5 -164t73.5 -47q86 0 178 197l64 256q0 147 -148 147q-86 0 -140 -104t-54 -285z" />
<glyph unicode="A" horiz-adv-x="1343" d="M-8 0v70q59 4 101 40.5t71 106.5l491 1172l62 -25l485 -1217q29 -43 45 -53q4 -4 34 -11t83 -22v-61h-561v61q29 4 60.5 8.5t57 10.5t43 15t17.5 22q-2 8 -3 23.5t-11 37.5l-93 252q-23 53 -124 53h-306q-78 0 -94 -53l-69 -213q-8 -18 -9 -53q0 -94 181 -94v-70h-461z M498 569h258q61 0 61 25q0 10 -22 68l-170 438l-181 -430q-22 -47 -22 -68q0 -33 76 -33z" />
<glyph unicode="B" horiz-adv-x="1380" d="M98 1294v64h592q109 0 202 -17.5t160.5 -55.5t106.5 -98.5t39 -148.5q0 -68 -20.5 -116t-58.5 -83.5t-90 -60t-114 -45.5v-8q166 -25 266.5 -109t100.5 -225q0 -111 -37 -187.5t-101.5 -123.5t-153.5 -67.5t-191 -20.5q-170 0 -333 4t-360 4v61q195 0 195 115v975 q0 143 -203 143zM502 150q0 -80 147 -80h90q70 0 129.5 15t103.5 51t68.5 92.5t24.5 138.5q0 96 -29.5 155.5t-86 92t-136.5 44t-178 11.5h-74q-59 0 -59 -78v-442zM502 807q0 -57 59 -57q141 0 226 14t131.5 46t60.5 82t14 122q0 264 -268 264h-80q-143 0 -143 -76v-395z " />
<glyph unicode="C" horiz-adv-x="1339" d="M98 655q0 160 51.5 293t138.5 229.5t202.5 149.5t246.5 53q158 0 297 -94q72 74 148 86q6 -6 18 -46t23.5 -103.5t19.5 -145.5t8 -172h-69q-47 197 -164 296t-273 99q-113 0 -192.5 -48t-130.5 -126.5t-74.5 -179t-23.5 -205.5q0 -145 25.5 -269t80.5 -215t143.5 -143.5 t210.5 -52.5q78 0 140.5 16.5t115 56.5t96.5 108.5t85 171.5l61 -23q-18 -106 -68.5 -185t-123 -131t-163.5 -79t-190 -27q-145 0 -263 52.5t-202 144.5t-129 218t-45 271z" />
<glyph unicode="D" horiz-adv-x="1552" d="M98 1294v64q41 -6 86 -7t92 -1q61 0 115.5 2t107 5t109 5t121.5 2q174 0 309.5 -47t227.5 -135t140 -216t48 -288q0 -156 -47 -281t-148.5 -213t-259 -136t-378.5 -48h-515v61q61 0 99.5 6.5t60 26t28.5 57t7 99.5v850q0 72 -10 107.5t-35 51t-63.5 19.5t-94.5 16z M502 236q0 -55 9 -87t30.5 -47.5t56.5 -18.5t86 -3h61q242 0 359 144.5t117 453.5q0 307 -131.5 453.5t-378.5 146.5h-82q-37 0 -61.5 -3t-39 -16.5t-20.5 -38t-6 -67.5v-917z" />
<glyph unicode="E" horiz-adv-x="1320" d="M98 1294v64h1076l16 -383l-64 -8q-18 111 -55 172t-89 91t-119.5 35t-147.5 5h-58q-156 0 -155 -92v-367q0 -61 49 -61h70q51 0 95 5t77.5 26.5t55 65.5t30.5 120h75v-531h-75q-8 76 -24.5 120t-47.5 67.5t-76 31t-110 7.5h-25q-94 0 -94 -68v-391q0 -117 164 -117h63 q129 0 208 19.5t128 61.5t79 105.5t60 149.5l56 -16l-56 -406h-1091v61q188 0 188 134v927q0 172 -203 172z" />
<glyph unicode="F" horiz-adv-x="1196" d="M98 1294v64h1051l33 -377l-72 -6q-18 102 -54 160.5t-89.5 88t-124 38t-160.5 8.5h-61q-125 0 -125 -84v-361q0 -75 113 -75h3h31q68 0 106.5 9t61.5 32.5t35 63.5t24 103h70v-522h-70v41q0 29 -7 60.5t-31.5 59.5t-72.5 46.5t-132 18.5h-95q-37 0 -36 -62v-375 q0 -164 211 -164v-61h-594v61q180 0 180 164v889q0 180 -195 180z" />
<glyph unicode="G" horiz-adv-x="1486" d="M98 655q0 141 48.5 273.5t136.5 235t209.5 164t267.5 61.5q88 0 169 -31t158 -72q74 74 148 86q70 -170 70 -467h-70q-45 180 -159.5 292t-291.5 112q-125 0 -211 -52.5t-140 -139.5t-77.5 -199.5t-23.5 -231.5q0 -129 27.5 -243.5t85 -200.5t141.5 -137.5t198 -51.5 q68 0 126.5 16.5t103.5 51.5t70.5 89t25.5 132q0 213 -209 213v61h586v-61q-182 0 -182 -156v-422h-54l-147 109q-70 -53 -167 -85t-200 -32q-141 0 -258 53.5t-201.5 146.5t-132 218t-47.5 268z" />
<glyph unicode="H" horiz-adv-x="1669" d="M98 0v61q209 0 209 142v911q0 180 -209 180v64h600v-64q-188 0 -188 -180v-350q68 -23 147 -23h369q115 0 156 23v350q0 180 -203 180v64h592v-64q-186 0 -187 -180v-911q0 -141 187 -142v-61h-592v61q203 0 203 142v428q-37 31 -156 31h-369q-41 0 -77.5 -7.5 t-69.5 -23.5v-428q0 -141 188 -142v-61h-600z" />
<glyph unicode="I" horiz-adv-x="794" d="M98 1294v64h592v-64q-188 0 -188 -180v-911q0 -141 196 -142v-61h-592v61q195 0 195 142v911q0 180 -203 180z" />
<glyph unicode="J" horiz-adv-x="903" d="M16 217q0 55 31 98t86 43q92 0 92 -86t-53 -86q-39 0 -55 17q8 -53 58 -88t122 -35q61 0 97 42t54.5 104.5t22.5 136t4 135.5v608q0 188 -209 188v64h584v-64q-172 0 -172 -180v-639q0 -104 -21.5 -194.5t-67.5 -158t-118 -106.5t-174 -39q-55 0 -105.5 17.5t-89.5 49.5 t-62.5 76t-23.5 97z" />
<glyph unicode="K" horiz-adv-x="1476" d="M98 1294v64h584v-64q-180 0 -180 -149v-498l477 453q47 43 62.5 68.5t15.5 70.5q0 55 -142 55v64h531v-64q-61 -6 -101 -17t-75 -32.5t-74 -57.5t-100 -95l-289 -281l467 -608q29 -31 53.5 -57.5t52 -45t61.5 -29t83 -10.5v-61h-561v61q116 0 116 32q0 28 -53 102 l-369 475l-92 -84q-23 -20 -40 -47t-23 -64v-272q0 -141 205 -142v-61h-594v61q188 0 188 142v942q0 149 -200 149h-3z" />
<glyph unicode="L" horiz-adv-x="1206" d="M98 1294v64h592v-64q-188 0 -188 -155v-967q0 -86 133 -86h94q94 0 164 13.5t119 37.5q90 49 162 293l55 -8l-62 -422h-1046v61q180 0 180 111v967q0 155 -200 155h-3z" />
<glyph unicode="M" horiz-adv-x="1826" d="M59 0v61q186 0 197 197l16 913v21q0 23 -5 41t-26.5 32.5t-62.5 21.5t-110 7v64h421l414 -1039l395 1039h416v-64q-68 0 -106.5 -9t-58 -26.5t-24.5 -40t-5 -47.5l22 -946q0 -164 187 -164v-61h-578v61q180 0 180 150l-14 952l-436 -1163h-58l-467 1145l-8 -903 q-2 -180 205 -181v-61h-494z" />
<glyph unicode="N" horiz-adv-x="1521" d="M41 1294v64h375l803 -1022v733q0 225 -209 225v64h489v-64q-188 0 -188 -225v-1077l-54 -15l-905 1153v-825q0 -244 211 -244v-61h-491v61q172 0 172 244v903q0 86 -203 86z" />
<glyph unicode="O" horiz-adv-x="1527" d="M84 670q0 135 47 263t135 227.5t212 159.5t276 60q150 0 275.5 -52t216.5 -145t142.5 -220t51.5 -277q0 -131 -49.5 -260t-138.5 -230.5t-215.5 -164t-282.5 -62.5q-145 0 -268.5 54.5t-212.5 149.5t-139 223t-50 274zM317 686q0 -135 27 -252t82 -203t141 -135t203 -49 q115 0 197 48t135 132t78.5 198t25.5 245q0 123 -25.5 237.5t-81 203.5t-144.5 143.5t-216 54.5q-117 0 -197.5 -51.5t-131 -137.5t-72 -198.5t-21.5 -235.5z" />
<glyph unicode="P" horiz-adv-x="1288" d="M98 1294v64h342q68 0 106 1t67.5 2l59 2t81.5 1q458 0 458 -395q0 -80 -27.5 -147.5t-85 -119t-145.5 -80t-209 -28.5q-66 0 -128 5t-121 17v-399q0 -156 202 -156v-61h-592v61q186 0 187 148v962q0 123 -195 123zM496 692q51 -10 112.5 -16t136.5 -6q68 0 116 25.5 t80 67.5t46 97t14 115q0 319 -366 319h-53q-86 0 -86 -108v-494z" />
<glyph unicode="Q" horiz-adv-x="1548" d="M98 670q0 147 53.5 277t146.5 228.5t218 156t268 57.5q150 0 273 -56.5t210 -152t136 -221t51 -267.5q0 -96 -21.5 -191t-70.5 -182.5t-130 -163t-198 -132.5q18 -49 48 -93.5t67 -77t76 -51t73 -18.5q84 0 125 84h56q-20 -72 -53 -113t-71 -62.5t-78 -27.5t-73 -6 q-223 0 -325 311h-80q-150 0 -259.5 35t-187.5 91.5t-128 130t-77.5 151.5t-38 153.5t-10.5 139.5zM332 678q0 -147 31.5 -264t92 -198t146.5 -125t197 -44t192.5 47t134 131t78 198t25.5 247q0 111 -24.5 222.5t-78 202.5t-138.5 148t-204 57q-100 0 -183 -36.5 t-143.5 -113.5t-93 -194.5t-32.5 -277.5z" />
<glyph unicode="R" horiz-adv-x="1363" d="M98 1294v64h256q68 0 115 1t91 3t94.5 3t121.5 1q88 0 166 -25.5t134.5 -70.5t89 -106.5t32.5 -133.5t-26.5 -127t-74.5 -96t-113.5 -69.5t-145.5 -45.5v-6q98 -47 162.5 -117.5t86.5 -136.5q12 -41 29 -98.5t38.5 -108.5t50 -87t69.5 -36q49 0 72 93l47 -17 q0 -25 -11.5 -59.5t-35 -65t-57.5 -53.5t-77 -23q-125 0 -184 42t-88 137q-25 78 -49.5 167t-58 163.5t-83 125t-122.5 50.5h-62q-55 0 -63 -23v-444q0 -133 188 -134v-61h-577v61q180 0 180 134v968q0 131 -195 131zM502 772q8 -31 49 -31h106q61 0 119 8.5t103 37t72.5 82 t27.5 145.5q0 78 -27.5 129t-71.5 80.5t-97.5 42t-104.5 12.5h-98q-78 0 -78 -115v-391z" />
<glyph unicode="S" horiz-adv-x="1110" d="M113 453h67q0 -90 37 -165t94.5 -128.5t129 -83t139.5 -29.5q43 0 95 14.5t98 45t78 77.5t32 113q0 82 -44 143.5t-141 96.5q-113 41 -216 75.5t-182 82.5t-126 121t-47 192q0 86 30.5 155.5t83 119.5t122 78t145.5 28q88 0 150.5 -32t115.5 -57q63 51 133 72 q29 -94 41.5 -199.5t12.5 -228.5h-62q-41 166 -137 265.5t-238 99.5q-117 0 -186.5 -61.5t-69.5 -155.5q0 -74 50.5 -128.5t150.5 -97.5q125 -53 227.5 -89t175 -83t112.5 -118.5t40 -194.5q0 -76 -23.5 -149.5t-72.5 -132t-128 -94.5t-190 -36q-72 0 -124 10.5t-88 24.5 t-56 28.5t-29 20.5q-39 -29 -77.5 -51t-77.5 -33q-23 154 -34 273.5t-11 210.5z" />
<glyph unicode="T" horiz-adv-x="1196" d="M-16 936l55 436q47 -6 89 -10t81 -4h788q43 0 88 4t93 10v-428l-56 -8q-25 328 -327 328q-102 0 -103 -70v-944q0 -188 221 -189v-61h-641v61q219 0 220 189v944q0 76 -101 76q-135 0 -219 -87t-125 -263z" />
<glyph unicode="U" horiz-adv-x="1542" d="M84 1294v64h592v-64q-195 0 -195 -149v-678q0 -70 7.5 -142.5t44 -131t113.5 -95.5t218 -37q131 0 210 40t120 99.5t54.5 131t13.5 135.5v647q0 180 -211 180v64h475v-64q-170 0 -170 -180v-622q0 -117 -20.5 -213.5t-83 -165t-177 -106.5t-305.5 -38q-121 0 -212 33 t-153.5 92.5t-94 141t-31.5 178.5v731q0 149 -192 149h-3z" />
<glyph unicode="V" horiz-adv-x="1339" d="M-27 1294v64h553v-64h-94q-70 0 -70 -39q0 -18 4.5 -40.5t10.5 -51.5l344 -921l321 880q6 37 7 72q0 100 -187 100v64h492v-64h-64q-72 0 -108 -108l-492 -1217l-69 15l-469 1179q-59 131 -179 131z" />
<glyph unicode="W" horiz-adv-x="1871" d="M-8 1294v64h514v-64q-92 0 -124 -19.5t-32 -57.5q0 -10 5 -23.5t12 -30.5l295 -874l243 725l-80 211q-12 35 -47 52t-100 17v64h530v-64q-151 0 -151 -83q0 -9 4 -25l297 -897l248 794q10 29 12 53.5t2 49.5q0 108 -167 108h-3v64h444v-64q-125 0 -186 -202l-367 -1115 l-77 -8l-320 914l-289 -906l-77 -8l-431 1194q-59 131 -155 131z" />
<glyph unicode="X" horiz-adv-x="1406" d="M10 0v61q115 0 250 148l342 446l-383 547q-33 45 -82 68.5t-121 23.5v64h586v-64q-147 0 -147 -55q0 -20 22 -53l250 -369l242 336q14 31 14 64q0 77 -143 77h-4v64h516v-64q-131 0 -205 -77l-373 -467l445 -625q43 -63 178 -64v-61h-609v61q164 0 164 41q0 31 -39 84 l-264 392l-274 -383q-6 -16 -10.5 -30.5t-4.5 -31.5q0 -72 179 -72v-61h-529z" />
<glyph unicode="Y" horiz-adv-x="1282" d="M-23 1294v64h560v-64q-147 0 -148 -69q0 -16 8.5 -30.5t24.5 -41.5l289 -483l264 475q6 20 10 42.5t4 45.5q0 61 -164 61v64h475v-64q-106 0 -161 -77l-383 -656v-414q0 -86 202 -86v-61h-622v61q209 0 209 95v399l-342 567q-104 172 -226 172z" />
<glyph unicode="Z" horiz-adv-x="1112" d="M47 47l764 1208q-43 8 -87 11.5t-85 3.5h-92q-29 0 -74 -4t-92 -15.5t-89 -32t-67 -55.5q-16 -33 -38.5 -83t-39.5 -113h-61l39 405q39 -6 77 -10t79 -4h780v-64l-756 -1200q35 -8 69 -11t62 -3h158q104 0 179 39t126 94t82 114.5t49 102.5l62 -16l-54 -414h-985z" />
<glyph unicode="[" horiz-adv-x="430" d="M106 -172v1591h254v-33h-139v-1515h139v-43h-254z" />
<glyph unicode="\" horiz-adv-x="894" d="M68 1395h125l671 -1506h-110z" />
<glyph unicode="]" horiz-adv-x="446" d="M68 -129h137v1515h-137v33h256v-1591h-256v43z" />
<glyph unicode="^" horiz-adv-x="866" d="M68 655l331 703h68l330 -703h-117l-246 539l-248 -539h-118z" />
<glyph unicode="_" horiz-adv-x="911" d="M-4 -117h919v-108h-919v108z" />
<glyph unicode="`" horiz-adv-x="602" d="M68 1225q0 27 17 53.5t75 26.5q37 0 76.5 -22.5t84 -56.5t95.5 -73t112 -74l-39 -55q-66 31 -139.5 51.5t-135.5 42t-104 46t-42 61.5z" />
<glyph unicode="a" horiz-adv-x="907" d="M68 170q0 252 507 344v80q0 201 -155 201q-68 0 -117 -22.5t-49 -86.5q12 -8 18.5 -25.5t6.5 -35.5q0 -78 -95 -78q-35 0 -59.5 22.5t-24.5 69.5t29 90t75 75t106.5 51t123.5 19q170 0 242 -63t72 -211v-444q0 -76 69 -76q33 0 64 22l22 -16q-31 -109 -164 -109 q-117 0 -147 134q-147 -133 -313 -134q-109 0 -160 46.5t-51 146.5zM242 203q0 -133 129 -133q57 0 95 17t61.5 46t37 63.5t19.5 69.5v178q-63 -6 -125 -21t-110 -43t-77.5 -71t-29.5 -106z" />
<glyph unicode="b" horiz-adv-x="1011" d="M14 1294v56l303 61v-700q103 163 265 163h2q82 0 151.5 -32.5t120.5 -90t80 -134t29 -164.5q0 -100 -30 -189.5t-83 -157t-128 -106.5t-163 -39q-96 0 -170 36t-127 89q-14 -49 -94 -109l-47 15q12 63 17 138t5 167v833q0 164 -131 164zM309 381q0 -45 7.5 -106.5 t33 -118t75.5 -95t136 -38.5q59 0 103.5 31.5t73 82.5t42 115.5t13.5 128.5q0 63 -11.5 133t-41 127t-81 94t-131.5 37q-72 0 -115.5 -31.5t-66 -81t-30 -106.5t-7.5 -109v-63z" />
<glyph unicode="c" horiz-adv-x="825" d="M68 399q0 96 27.5 182.5t84 152t141.5 103t199 37.5q49 0 97.5 -14t86 -39.5t60 -62.5t22.5 -80q0 -41 -34.5 -70.5t-75.5 -29.5q-84 0 -84 92q0 6 3 26.5t3 36.5q0 41 -38 59.5t-79 18.5q-59 0 -101 -31.5t-69.5 -82t-41 -112t-13.5 -118.5q0 -82 16.5 -152.5t49 -123 t84 -82t122.5 -29.5q137 0 220 123l53 -31q-20 -55 -59.5 -95t-87.5 -65.5t-101 -38t-102 -12.5q-90 0 -162 34t-121 93t-74.5 139t-25.5 172z" />
<glyph unicode="d" horiz-adv-x="1026" d="M47 391q0 102 33 191.5t90 154t136 101t171 36.5q74 0 128 -29.5t85 -64.5v445q0 69 -154 69h-4v64l328 53q4 -76 6 -176t2 -213v-772q0 -172 142 -180l-9 -54q-33 -8 -105.5 -15t-182.5 -24l-23 134q-37 -68 -106.5 -108t-159.5 -40q-76 0 -144.5 25.5t-119.5 78 t-82 133.5t-31 191zM229 461q0 -72 13.5 -141.5t43 -127t78.5 -92t121 -34.5q68 0 109 24.5t63.5 72.5t30.5 116.5t8 156.5q0 358 -233 359q-59 0 -103.5 -30t-73 -78t-43 -107.5t-14.5 -118.5z" />
<glyph unicode="e" horiz-adv-x="880" d="M47 406q0 92 28.5 176t81 149.5t126 104t163.5 38.5q55 0 116 -13t114 -52t92 -111.5t51 -191.5q0 -25 -6 -45h-545q-39 0 -39 -31q0 -74 20.5 -139.5t57.5 -114.5t90.5 -76.5t118.5 -27.5q86 0 148.5 49t109.5 115l45 -33q-53 -115 -143 -178.5t-213 -63.5 q-102 0 -180 35t-130.5 94.5t-79 141t-26.5 174.5zM229 547q0 -25 45 -25h267q84 0 84 86q-6 78 -52.5 136.5t-134.5 58.5q-47 0 -86 -21.5t-66.5 -57.5t-42 -82t-14.5 -95z" />
<glyph unicode="f" horiz-adv-x="610" d="M12 750v84h158q31 0 31 55q0 115 18.5 211t61.5 164.5t113.5 107.5t172.5 39q164 0 164 -135q0 -39 -26.5 -64.5t-63.5 -25.5q-74 0 -74 59q0 33 17 49q-25 33 -64 33q-47 0 -75.5 -39t-45 -92t-22.5 -110.5t-6 -96.5v-100q0 -55 32 -55l189 8l-8 -86h-181q-33 0 -32 -23 v-569q0 -102 182 -103v-61h-485v61q133 0 133 103v561q0 25 -25 25h-164z" />
<glyph unicode="g" horiz-adv-x="923" d="M41 -195q0 117 178 172q-131 31 -131 156q0 33 12.5 63.5t35 55t52 39t64.5 14.5q-156 82 -156 264q0 61 22.5 116.5t66.5 97.5t109.5 66.5t151.5 24.5q137 0 242 -88q35 53 78 75t92 22q86 0 86 -74q0 -80 -65 -80q-43 0 -68 31q-47 -6 -76 -41q29 -33 41 -74t12 -76 q0 -160 -91 -235.5t-296 -75.5q-23 0 -46 4t-50 10q-100 -6 -100 -82q0 -45 34.5 -62t116.5 -17h234q59 0 111.5 -13.5t91 -42t61.5 -72.5t23 -106q0 -57 -26 -103t-72 -79t-109.5 -50.5t-139.5 -17.5h-204q-125 0 -205 44t-80 134zM188 -158q0 -76 64.5 -114.5t177.5 -38.5 h59q254 0 254 164q0 108 -239 108h-4h-170q-68 -12 -105 -38.5t-37 -80.5zM260 594q0 -258 172 -258q186 0 186 192q0 283 -180 283q-178 0 -178 -217z" />
<glyph unicode="h" horiz-adv-x="1167" d="M68 0v61q133 0 133 103v966q0 164 -125 164v56l295 61v-709q129 164 297 164q74 0 129 -20.5t90 -57t52 -85t17 -103.5v-453q0 -86 142 -86v-61h-439v61q133 0 134 86v314q0 289 -187 289q-207 0 -235 -213v-373q0 -102 149 -103v-61h-452z" />
<glyph unicode="i" horiz-adv-x="602" d="M68 0v61q141 0 141 125v408q0 162 -125 162v55l295 63v-696q0 -117 156 -117v-61h-467zM170 1225q0 116 115 116h2q111 0 110 -116q1 -125 -118 -125q-109 0 -109 125z" />
<glyph unicode="j" horiz-adv-x="489" d="M-90 -242q0 86 86 86q29 0 38 -17t13 -37.5t9 -38t26 -17.5q109 0 108 227v717q0 78 -155 78v55l327 72v-867q0 -68 -23.5 -134t-66.5 -120.5t-101 -87t-128 -32.5q-133 0 -133 116zM274 1341h2q109 0 109 -116q0 -125 -115 -125q-110 0 -110 123q0 118 114 118z" />
<glyph unicode="k" horiz-adv-x="1044" d="M59 1294v64l312 53v-958q39 23 90 61.5t97 81.5t78 82t32 63q0 39 -115 39v54h442v-54q-29 0 -76 -16t-118 -45q-61 -66 -111.5 -108t-91.5 -64l283 -383q72 -102 147 -103h47v-61h-430v61q72 0 72 33l-228 328q-23 -16 -50 -31.5t-68 -32.5v-202q0 -94 149 -95v-61h-452 v61q133 0 133 103v1030q0 100 -142 100z" />
<glyph unicode="l" horiz-adv-x="602" d="M49 1294v56l330 61v-1264q0 -86 156 -86v-61h-467v61q139 0 139 95v1038q0 100 -158 100z" />
<glyph unicode="m" horiz-adv-x="1638" d="M43 750v53l295 71q8 -8 8 -40v-123q33 61 106.5 112t174.5 51q37 0 79 -14t77.5 -37.5t61 -54.5t34.5 -66q39 78 119.5 125t168.5 47q123 0 197 -77.5t74 -218.5v-414q0 -102 133 -103v-61h-428v61q131 0 131 103v373q0 227 -170 227q-147 0 -203 -170v-399 q0 -133 133 -134v-61h-430v61q125 0 125 142v280q0 281 -170 281q-205 0 -205 -250v-342q0 -111 133 -111v-61h-419v61q115 0 114 103v522q0 63 -139 64z" />
<glyph unicode="n" horiz-adv-x="1132" d="M43 750v53l295 71q8 -8 8 -40v-123q16 31 42 60.5t63.5 52t89 36.5t116.5 14q37 0 84 -15t90 -49t72 -87t29 -129v-453q0 -80 133 -80v-61h-438v61q133 0 133 86v336q0 281 -201 281q-205 0 -205 -250v-367q0 -86 148 -86v-61h-434v61q115 0 114 95v522q0 72 -110 72h-29 z" />
<glyph unicode="o" d="M47 406q0 106 35 193t94.5 148.5t139 94t169.5 32.5q92 0 170 -35.5t134.5 -96t87 -141.5t30.5 -171q0 -109 -34.5 -196t-94 -147t-137.5 -93t-164 -33q-96 0 -176 36t-136 96.5t-87 141t-31 171.5zM238 492q0 -68 8 -149t33.5 -149.5t74.5 -115.5t131 -47q80 0 126 35.5 t71 85t32 102.5t7 88q0 68 -8 148.5t-34 149.5t-74 116t-128 47q-82 0 -129 -36t-71.5 -85t-31.5 -102.5t-7 -87.5z" />
<glyph unicode="p" horiz-adv-x="1017" d="M35 741v39l289 94q8 -23 8 -63v-100q39 86 112.5 124.5t151.5 38.5q100 0 172 -46t117 -111.5t65.5 -140t20.5 -132.5q0 -88 -26.5 -168.5t-75 -145t-118 -105.5t-155.5 -48q-100 0 -158.5 23t-99.5 61l-6 -8q6 -12 6 -76v-227q0 -69 159 -69h5v-54h-453v54q111 0 111 61 v905q0 94 -125 94zM332 350q6 -61 18 -113.5t38 -91.5t68 -61.5t109 -22.5q63 0 108.5 29t73 77t40 108.5t12.5 123.5q0 61 -16.5 127t-49.5 118t-83 86t-118 34q-74 0 -114.5 -39t-60 -90t-22.5 -101.5t-3 -72.5v-111z" />
<glyph unicode="q" horiz-adv-x="1011" d="M47 373q0 92 25.5 179t77 154.5t129 109.5t184.5 42q111 0 176.5 -28.5t112.5 -79.5l75 108h50q-6 -66 -11.5 -117t-5.5 -86v-858q0 -116 121 -116h2v-54h-451v54q158 0 158 116v297q-49 -66 -118.5 -95.5t-147.5 -29.5q-111 0 -183.5 45t-115.5 107.5t-60.5 132.5 t-17.5 119zM221 444q0 -78 16.5 -144.5t48 -115.5t82 -76.5t117.5 -27.5q205 0 205 256v125q0 55 -10 115.5t-37 110.5t-70 83t-110 33q-113 0 -177.5 -87t-64.5 -272z" />
<glyph unicode="r" horiz-adv-x="780" d="M59 756v55q78 16 157 31.5t155 31.5v-196l10 -8q6 27 27.5 61.5t53.5 66t70.5 54t81.5 22.5q156 0 156 -141q0 -117 -94 -117q-84 0 -84 76q0 33 6 49h-37q-61 0 -98 -38.5t-56.5 -94t-26.5 -116t-9 -101.5v-219q0 -111 157 -111v-61h-460v61q133 0 133 117v430 q0 147 -142 148z" />
<glyph unicode="s" horiz-adv-x="741" d="M61 297h56q23 -74 49.5 -124t59 -80t73.5 -42t92 -12q170 0 170 133q0 39 -13 66.5t-41 47t-69 37t-96 35.5q-43 14 -92 36t-91 52.5t-70 72.5t-28 97t16.5 102.5t50.5 82.5t87 54t127 19q88 0 172 -49q33 27 80 41q37 -141 37 -266h-45q-94 211 -250 211 q-63 0 -110.5 -30.5t-47.5 -102.5q0 -41 38 -69.5t94.5 -53.5t122 -49.5t121.5 -58t94 -81t38 -116.5q0 -61 -22.5 -110.5t-62.5 -84.5t-92 -56.5t-110 -29.5q-102 0 -182 54q-45 -35 -123 -46q-33 150 -33 320z" />
<glyph unicode="t" horiz-adv-x="608" d="M0 756l8 61q94 18 151.5 107.5t82.5 205.5l63 9v-305h162q29 0 52.5 5t41.5 11v-94h-256v-539q0 -25 2 -48.5t11.5 -44t30 -32.5t57.5 -12q59 0 106 41t57 104l47 -16q-12 -53 -30.5 -97t-49 -76t-76.5 -49.5t-110 -17.5q-100 0 -158.5 48.5t-58.5 154.5v584h-133z" />
<glyph unicode="u" horiz-adv-x="1097" d="M29 825l311 25v-522q0 -49 3 -94.5t18.5 -79t50 -54t100.5 -20.5q166 0 227 209v413q0 70 -147 70l-8 53l327 25v-686q0 -70 140 -78l16 -55l-313 -39q-6 14 -6 55v78q-20 -35 -45 -62.5t-59 -46t-79 -29t-106 -10.5q-78 0 -133.5 14.5t-90 50.5t-50 96.5t-15.5 150.5 v413q0 70 -133 70z" />
<glyph unicode="v" horiz-adv-x="917" d="M-10 772v62h438v-62q-125 0 -125 -53q0 -20 1 -27.5t5 -13.5l211 -492l180 453q6 23 11.5 40t5.5 32q0 61 -119 61v62h336v-62q-53 0 -83 -31.5t-50 -93.5l-289 -670l-70 -16l-342 758q-18 29 -43.5 41t-66.5 12z" />
<glyph unicode="w" horiz-adv-x="1355" d="M-12 772v62h407v-62q-94 0 -94 -61q0 -20 14 -64l181 -444l170 375l-45 141q-35 53 -125 53v62h413v-62q-110 0 -110 -46q0 -21 16 -87l170 -436q88 227 130 347t52 136v25q0 61 -125 61v62h334v-62q-80 0 -108 -80l-297 -723l-56 -8l-217 522l-227 -514l-53 -8l-305 731 q-33 80 -125 80z" />
<glyph unicode="x" horiz-adv-x="968" d="M20 0v61q88 0 156 80l227 258l-249 326q-18 23 -57.5 35t-67.5 12v62h430v-62q-94 0 -94 -39q0 -16 14 -47l133 -172l133 148q31 37 31 71q0 39 -109 39v62h359v-62q-100 0 -156 -70l-209 -241l256 -336q47 -63 139 -64v-61h-444v61q102 0 102 41q0 23 -30 54l-133 186 l-156 -170q-16 -16 -23.5 -29.5t-7.5 -29.5q0 -25 24.5 -38.5t82.5 -13.5v-61h-351z" />
<glyph unicode="y" horiz-adv-x="890" d="M-4 772v62h422v-62h-41q-76 0 -76 -47q2 -6 4 -16t4 -23.5t6 -30.5l211 -452l164 422q8 39 12.5 58t4.5 28q0 61 -134 61v62h351v-62q-86 0 -117 -70l-248 -622q-10 -20 -28.5 -60t-43 -89.5t-55.5 -100.5t-69.5 -93t-84 -68.5t-96.5 -26.5q-108 0 -108 98q0 104 78 104 q37 0 49 -17t17 -37.5t12.5 -38t31.5 -17.5q14 0 39 26.5t50.5 66.5t48 88t32.5 93l-319 684q-29 80 -117 80z" />
<glyph unicode="z" horiz-adv-x="811" d="M55 0v53l484 680q-8 8 -54 8h-84q-78 0 -127 -16q-25 -8 -40 -14t-29.5 -22.5t-31.5 -47.5t-46 -86l-47 6q10 145 63 289q61 -16 201 -16h399v-39l-491 -684q16 -16 47 -17h156q57 0 98 11.5t68.5 35t47 60.5t36.5 88l61 -8q-8 -72 -21.5 -140.5t-31.5 -140.5h-658z" />
<glyph unicode="{" horiz-adv-x="497" d="M68 623l108 104v551q41 59 107.5 93t148.5 48v-33q-78 -20 -137 -88v-608l-72 -67l72 -70v-557q16 -47 52 -78t85 -47v-43q-139 12 -256 100v586z" />
<glyph unicode="|" horiz-adv-x="604" d="M238 -217v1692q0 23 45 22q53 0 53 -22v-1692q0 -25 -45 -25q-53 0 -53 25z" />
<glyph unicode="}" horiz-adv-x="497" d="M68 -139q80 23 137 90v606l69 68l-69 69v557q-35 92 -137 125v43q72 -6 135 -31.5t121 -66.5v-588l108 -108l-108 -105v-551q-41 -59 -107.5 -93t-148.5 -48v33z" />
<glyph unicode="~" horiz-adv-x="1136" d="M109 578q14 47 42.5 85.5t65.5 66.5t79 43t83 15q82 0 129 -21.5t82 -46t69.5 -46t94.5 -21.5q53 0 100 29t88 102l57 -34q-27 -94 -100.5 -153.5t-175.5 -59.5q-55 0 -102.5 22.5t-90.5 48t-86 48t-92 22.5q-57 0 -105 -37t-83 -92z" />
<glyph horiz-adv-x="0" />
<glyph unicode="&#xa1;" horiz-adv-x="536" d="M135 0q0 29 2 54.5t6 62.5t11.5 90t18.5 137t26.5 205t38.5 293h61q16 -172 28.5 -293t21.5 -205t15.5 -137t10.5 -90t6 -62.5t2 -54.5q0 -147 -123 -147q-125 0 -125 147zM135 1139q0 131 133 131q140 0 140 -131t-140 -131q-133 0 -133 131z" />
<glyph unicode="&#xa2;" horiz-adv-x="870" d="M68 608q0 86 22.5 164t67.5 140.5t112.5 104.5t157.5 58v400q0 23 31 22q39 0 39 -22v-392q61 0 114.5 -14t91 -39.5t60 -61.5t22.5 -79q0 -41 -34.5 -72t-75.5 -31q-84 0 -84 97q0 6 3 25.5t3 35.5q0 70 -100 78v-733q168 0 250 125l53 -33q-18 -51 -53 -88t-77 -62.5 t-87 -40t-86 -18.5v-389q0 -25 -33 -25q-37 0 -37 25v389q-88 4 -154.5 40t-112.5 94.5t-69.5 136t-23.5 165.5zM256 678q0 -135 42 -234.5t130 -138.5v709q-43 -16 -76 -52t-54.5 -83.5t-31.5 -99.5t-10 -101z" />
<glyph unicode="&#xa3;" horiz-adv-x="1222" d="M43 53q37 59 80 104.5t102 69.5q47 59 87 131t81 164h-149v78h180q31 82 53.5 172t47 176t54 165t75.5 138.5t113 94t163 34.5q117 0 172 -34.5t55 -100.5q0 -92 -76 -92q-86 0 -86 82q0 31 21 51q-43 27 -105 27q-63 0 -103 -31t-65.5 -84t-42 -123.5t-34 -149.5 t-39 -163t-56.5 -162h295v-78h-334q-27 -49 -53 -88t-56 -71.5t-64.5 -62.5t-75.5 -60q47 20 88 29.5t75 9.5q61 0 123 -37t119 -105q41 -53 90 -77.5t115 -24.5q109 0 219 104l43 -30q-111 -139 -385 -140q-174 0 -266 129q-74 106 -187 107q-39 0 -70.5 -19.5t-57 -50.5 t-48 -67.5t-41.5 -69.5z" />
<glyph unicode="&#xa4;" horiz-adv-x="1392" d="M88 664q0 113 39 210t111 170l-127 127l73 76l131 -131q78 59 175.5 91t205.5 32q215 0 373 -117l125 125l74 -76l-119 -118q72 -76 110.5 -174.5t38.5 -214.5q0 -111 -37.5 -209.5t-109.5 -175.5l119 -117l-74 -76l-123 123q-76 -53 -170 -83t-207 -30q-117 0 -213 32 t-174 85l-127 -127l-73 76l122 123q-70 76 -106.5 172t-36.5 207zM209 664q0 -113 42 -202t109.5 -150.5t155.5 -93.5t180 -32q121 0 211 43t150.5 111t90.5 153t30 171q0 113 -40 200.5t-107.5 149t-155 93.5t-179.5 32q-109 0 -197.5 -37t-153 -100.5t-100.5 -150.5 t-36 -187z" />
<glyph unicode="&#xa5;" horiz-adv-x="1269" d="M68 1294v64h483v-64q-127 0 -127 -69q0 -23 25 -72l245 -483l228 475q14 37 14 88q0 61 -141 61v64h407v-64q-92 0 -139 -77l-277 -555h297v-125h-346v-127h346v-125h-346v-138q0 -86 174 -86v-61h-536v61q182 0 182 95v129h-362v125h362v127h-362v125h303l-236 460 q-45 86 -92 129t-102 43z" />
<glyph unicode="&#xa6;" horiz-adv-x="604" d="M238 -217v686q0 25 45 25q53 0 53 -25v-686q0 -25 -45 -25q-53 0 -53 25zM238 809v666q0 23 45 22q53 0 53 -22v-666q0 -23 -45 -23q-53 0 -53 23z" />
<glyph unicode="&#xa7;" horiz-adv-x="774" d="M68 297h55q23 -74 49.5 -123t60 -80t73.5 -43t91 -12q170 0 170 133q0 80 -54 116t-165 70q-41 14 -90 36t-91 52.5t-70.5 72.5t-28.5 97q0 88 42 154t136 92q-76 35 -121 91.5t-45 121.5q0 111 67.5 184.5t212.5 73.5q90 0 170 -47q20 12 39 22.5t41 18.5 q18 -72 28.5 -139.5t10.5 -126.5h-47q-94 209 -250 209q-61 0 -108 -30t-47 -101q0 -41 37.5 -70t94 -54.5t123 -52t123 -63.5t94.5 -88t38 -125q0 -94 -56.5 -153.5t-150.5 -88.5q82 -16 136 -62t54 -132q0 -61 -22.5 -109.5t-60.5 -84.5t-90 -57.5t-114 -29.5 q-102 0 -180 54q-45 -35 -123 -46q-16 74 -24 154t-8 166zM184 678q0 -43 19.5 -77t51.5 -56.5t72 -34.5t81 -12q172 0 172 133q0 33 -16.5 65.5t-47.5 58t-76 41t-100 15.5q-61 0 -108.5 -30.5t-47.5 -102.5z" />
<glyph unicode="&#xa8;" horiz-adv-x="819" d="M90 1225q0 117 119 116q109 0 108 -116q1 -125 -116 -125q-111 0 -111 125zM512 1225q0 117 117 116q111 0 110 -116q1 -125 -116 -125q-111 0 -111 125z" />
<glyph unicode="&#xa9;" horiz-adv-x="1552" d="M84 670q0 150 54.5 278.5t147.5 224t219 148.5t269 53q150 0 276 -51t218 -144.5t143 -223.5t51 -285q0 -147 -48 -275.5t-138 -222.5t-217 -148.5t-285 -54.5t-286 54.5t-218 149.5t-138 222t-48 275zM188 670q0 -172 57.5 -293t145.5 -197t192.5 -109.5t196.5 -33.5 q160 0 272.5 60.5t183.5 154.5t102.5 204.5t31.5 213.5q0 168 -58.5 287.5t-146.5 196.5t-191.5 113t-193.5 36q-123 0 -230.5 -46.5t-188 -130.5t-127 -199.5t-46.5 -256.5zM416 662q0 90 28.5 165.5t77.5 130t116 84t142 29.5q82 0 164 -57q23 20 47.5 32.5t46.5 16.5 q6 -10 21.5 -83t15.5 -177h-47q-29 109 -92.5 159t-151.5 50q-61 0 -105 -25.5t-72.5 -67.5t-42 -96.5t-13.5 -109.5q0 -166 59.5 -268.5t194.5 -102.5q43 0 79 8t65.5 28.5t53 57.5t46.5 92l47 -16q-12 -59 -42 -103t-72 -75t-94 -46.5t-108 -15.5q-82 0 -149.5 31 t-114.5 83t-73.5 123t-26.5 153z" />
<glyph unicode="&#xaa;" horiz-adv-x="716" d="M47 850q0 90 105.5 150.5t293.5 97.5v57q0 150 -112 150q-53 0 -87 -11.5t-34 -66.5q4 -10 9 -21.5t5 -27.5q0 -53 -77 -54q-29 0 -51.5 15.5t-22.5 48.5q0 37 23.5 68.5t61.5 55t86 38t97 14.5q123 0 186.5 -45t63.5 -156v-334q0 -53 49 -53q25 0 47 15l17 -11 q-25 -82 -119 -82q-47 0 -84 26t-47 73q-111 -98 -230 -99q-82 0 -131 38t-49 114zM197 866q0 -100 98 -100q45 0 73.5 14.5t46 37t26 51t12.5 57.5v118q-47 -6 -93.5 -16t-82 -30.5t-58 -52.5t-22.5 -79z" />
<glyph unicode="&#xab;" horiz-adv-x="1058" d="M94 510l371 340l33 -41l-219 -299l219 -303l-33 -37zM498 510l370 340l35 -41l-219 -299l219 -303l-35 -37z" />
<glyph unicode="&#xac;" horiz-adv-x="1163" d="M88 625v116h950v-741h-112v625h-838z" />
<glyph unicode="&#xad;" horiz-adv-x="620" d="M68 461v125h485v-125h-485z" />
<glyph unicode="&#xae;" horiz-adv-x="1552" d="M84 670q0 150 54.5 278.5t147.5 224t219 148.5t269 53q150 0 276 -51t218 -144.5t143 -223.5t51 -285q0 -147 -48 -275.5t-138 -222.5t-217 -148.5t-285 -54.5t-286 54.5t-218 149.5t-138 222t-48 275zM188 670q0 -172 57.5 -293t145.5 -197t192.5 -109.5t196.5 -33.5 q160 0 272.5 60.5t183.5 154.5t102.5 204.5t31.5 213.5q0 168 -58.5 287.5t-146.5 196.5t-191.5 113t-193.5 36q-123 0 -230.5 -46.5t-188 -130.5t-127 -199.5t-46.5 -256.5zM459 987v55h141q41 0 73 1t58.5 1t50 1.5t49.5 1.5q106 0 170 -53.5t64 -131.5t-55.5 -123 t-141.5 -73v-4q41 -12 69 -41t46 -64t31.5 -71.5t26 -67.5t27.5 -50.5t40 -19.5q27 0 37 53l47 -8q0 -16 -8 -35.5t-22.5 -37t-37 -29.5t-49.5 -12q-61 0 -97 27.5t-56.5 68.5t-32.5 89t-27.5 89t-40 68.5t-69.5 27.5h-35q-33 0 -35 -12v-217q0 -74 104 -74v-53h-321v53 q100 0 100 74v495q0 72 -106 72zM682 729q4 -16 27 -16h59q37 0 68.5 6t56.5 21.5t39 43t14 70.5q0 66 -56 95.5t-147 29.5q-61 0 -61 -64v-186z" />
<glyph unicode="&#xaf;" horiz-adv-x="819" d="M94 1116v111h637v-111h-637z" />
<glyph unicode="&#xb0;" horiz-adv-x="661" d="M47 1110q0 55 21.5 104.5t59.5 86t90 58t112 21.5q59 0 111.5 -21.5t91 -58t61 -86t22.5 -104.5t-22.5 -105.5t-61 -88t-91 -59t-111.5 -21.5t-111.5 21.5t-90.5 59t-59.5 88t-21.5 105.5zM156 1110q0 -80 49 -124t125 -44q72 0 121 44t49 124q0 70 -49.5 118t-120.5 48 q-76 0 -125 -48t-49 -118z" />
<glyph unicode="&#xb1;" horiz-adv-x="1122" d="M96 621v133h389v395h140v-395h391v-133h-391v-381h-140v381h-389zM100 -59v133h920v-133h-920z" />
<glyph unicode="&#xb2;" horiz-adv-x="661" d="M55 539q84 82 155 158.5t123 149.5t81.5 143.5t29.5 137.5q0 135 -143 136q-123 0 -129 -72q41 -16 41 -59q0 -74 -66 -74q-29 0 -47 22.5t-18 69.5q0 207 264 207q240 0 240 -221q0 -137 -88 -258t-262 -258h178q61 0 89.5 17t53.5 85l59 -2l-53 -227h-395 q-18 0 -46 -2.5t-56 -4.5z" />
<glyph unicode="&#xb3;" horiz-adv-x="641" d="M47 612q0 74 76 74q57 0 57 -55q0 -35 -22 -49q12 -23 65 -23q203 0 203 191q0 162 -125 161h-61q-31 0 -31 33q0 37 31 37q82 0 121.5 44t39.5 122q0 123 -106 123q-47 0 -71.5 -6.5t-28.5 -24.5q23 -12 22 -47q0 -68 -63 -68q-61 0 -62 66q0 170 236 170 q205 0 204 -195q0 -135 -118 -186q164 -31 164 -225q0 -279 -320 -279q-211 0 -211 137z" />
<glyph unicode="&#xb4;" horiz-adv-x="600" d="M76 1079q51 29 98 68t93 73.5t91 59.5t88 25q53 0 69.5 -27t16.5 -53q0 -39 -51 -67t-119.5 -50.5t-139 -41.5t-109.5 -42z" />
<glyph unicode="&#xb5;" horiz-adv-x="1294" d="M74 -309q170 0 170 86v905q0 88 -168 88v64h342v-578q0 -109 38 -151t119 -42q55 0 102.5 21.5t88.5 58.5t74.5 87.5t62.5 105.5v346q0 88 -190 88v64h366v-682q0 -86 148 -86v-66h-324v197q-25 -37 -56.5 -75t-74.5 -68.5t-99.5 -50t-129.5 -19.5q-35 0 -67 2t-58 10 v-219q0 -86 213 -86v-64h-557v64z" />
<glyph unicode="&#xb6;" horiz-adv-x="1071" d="M70 1083q0 129 69.5 202t216.5 73h660v-64q-121 0 -121 -123v-1171h-125v891q-29 -12 -60.5 -23.5t-68.5 -21.5v-846h-125v803q-37 -14 -81 -22.5t-85 -8.5q-74 0 -127 26.5t-87 70.5t-50 99.5t-16 114.5z" />
<glyph unicode="&#xb7;" horiz-adv-x="479" d="M104 690q0 131 140 131q131 0 131 -131t-131 -131q-139 0 -140 131z" />
<glyph unicode="&#xb8;" horiz-adv-x="323" d="M43 -190q0 49 30.5 76.5t82.5 27.5q59 0 93 -35t34 -98q0 -88 -42 -141.5t-128 -94.5l-33 54q47 18 63.5 39.5t16.5 50.5q0 25 -21 24q-96 0 -96 97z" />
<glyph unicode="&#xb9;" horiz-adv-x="522" d="M47 1208v62q49 8 82 15t59.5 17.5t51 28t55.5 43.5l49 -12q-6 -31 -7 -54.5t-1 -39.5v-643q0 -66 145 -66v-65h-432v65q150 0 150 66v546q0 37 -35 37h-117z" />
<glyph unicode="&#xba;" horiz-adv-x="731" d="M47 1020q0 80 25.5 144.5t69.5 109.5t103.5 69.5t125.5 24.5q72 0 130 -26.5t99 -72.5t63.5 -105.5t22.5 -127.5q0 -80 -26.5 -144.5t-70.5 -109.5t-101.5 -68.5t-118.5 -23.5q-72 0 -131.5 26.5t-101.5 70.5t-65.5 104.5t-23.5 128.5zM209 1085q0 -51 2 -111.5 t17.5 -112.5t48.5 -87t94 -35q55 0 86.5 27t47 63.5t19.5 76.5t4 67q0 49 -3 109.5t-18 112.5t-48 87t-90 35t-90 -26.5t-48.5 -64.5t-18.5 -77t-3 -64z" />
<glyph unicode="&#xbb;" horiz-adv-x="1058" d="M94 209l217 299l-217 305l35 37l369 -342l-369 -338zM498 209l221 299l-221 305l32 37l373 -342l-373 -338z" />
<glyph unicode="&#xbc;" horiz-adv-x="1550" d="M106 1208v62q49 8 82 15t59.5 17.5t50.5 27t54 44.5l51 -12q-4 -31 -6 -54.5t-2 -39.5v-643q0 -66 144 -66v-65h-428v65q147 0 147 66v546q0 37 -37 37h-115zM336 0l772 1358h111l-781 -1358h-102zM840 238v67l403 565l66 -4q-8 -35 -12.5 -62.5t-4.5 -49.5v-400 q0 -10 6 -10h48q33 0 75 16v-122h-123q-6 0 -6 -13v-121q0 -41 58 -41v-63h-250v63q63 0 63 41v121q0 12 -12 13h-311zM954 344h197q12 0 12 10v277z" />
<glyph unicode="&#xbd;" horiz-adv-x="1550" d="M106 1208v62q49 8 82 15t59.5 17.5t50.5 27t54 44.5l51 -12q-4 -31 -6 -54.5t-2 -39.5v-643q0 -66 144 -66v-65h-428v65q147 0 147 66v546q0 37 -37 37h-115zM336 0l772 1358h111l-781 -1358h-102zM913 47q82 82 153 159t123 149.5t80.5 142t28.5 137.5q0 135 -143 135 q-121 0 -127 -72q43 -16 43 -59q0 -74 -67 -74q-66 0 -66 92q0 207 264 207q238 0 238 -221q0 -135 -88 -257t-262 -259h178q31 0 53 4t38.5 14.5t28 31t23.5 52.5l62 -4l-54 -225h-395q-20 0 -48 -2t-54 -4z" />
<glyph unicode="&#xbe;" horiz-adv-x="1550" d="M47 612q0 74 76 74q57 0 57 -55q0 -35 -22 -49q12 -23 65 -23q203 0 203 191q0 162 -125 161h-61q-31 0 -31 33q0 37 31 37q82 0 121.5 44t39.5 122q0 123 -106 123q-47 0 -71.5 -6.5t-28.5 -24.5q23 -12 22 -47q0 -68 -63 -68q-61 0 -62 66q0 170 236 170 q205 0 204 -195q0 -135 -118 -186q164 -31 164 -225q0 -279 -320 -279q-211 0 -211 137zM336 0l772 1358h111l-781 -1358h-102zM840 238v67l403 565l66 -4q-8 -35 -12.5 -62.5t-4.5 -49.5v-400q0 -10 6 -10h48q33 0 75 16v-122h-123q-6 0 -6 -13v-121q0 -41 58 -41v-63h-250 v63q63 0 63 41v121q0 12 -12 13h-311zM954 344h197q12 0 12 10v277z" />
<glyph unicode="&#xbf;" horiz-adv-x="759" d="M68 141q0 82 24.5 141.5t62.5 105.5t81 84t80.5 77t62 85t24.5 107v84h56q23 -49 22 -139q0 -63 -17.5 -111.5t-44 -88.5t-58 -76.5t-58.5 -76.5t-44 -86t-17 -106q0 -88 42 -138t150 -50q31 0 66 12t45 43v15q0 8 -5 12t-5 12q0 100 88 100q68 0 67 -100 q0 -51 -20.5 -88t-56 -60.5t-83 -34.5t-102.5 -11q-80 0 -145.5 18t-113.5 55t-74.5 90.5t-26.5 124.5zM303 1122q0 133 131 133q141 0 141 -133t-141 -133q-131 0 -131 133z" />
<glyph unicode="&#xc0;" horiz-adv-x="1343" d="M-8 0v70q59 4 101 40.5t71 106.5l491 1172l62 -25l485 -1217q29 -43 45 -53q4 -4 34 -11t83 -22v-61h-561v61q29 4 60.5 8.5t57 10.5t43 15t17.5 22q-2 8 -3 23.5t-11 37.5l-93 252q-23 53 -124 53h-306q-78 0 -94 -53l-69 -213q-8 -18 -9 -53q0 -94 181 -94v-70h-461z M379 1749q0 27 17 53.5t75 26.5q37 0 76.5 -22.5t84 -56.5t95.5 -73t112 -74l-39 -55q-66 31 -139.5 51.5t-135.5 42t-104 46t-42 61.5zM422 600q0 -31 76 -31h258q61 0 61 25q0 10 -22 68l-170 438l-181 -430q-23 -49 -22 -70z" />
<glyph unicode="&#xc1;" horiz-adv-x="1343" d="M-8 0v70q59 4 101 40.5t71 106.5l491 1172l62 -25l485 -1217q29 -43 45 -53q4 -4 34 -11t83 -22v-61h-561v61q29 4 60.5 8.5t57 10.5t43 15t17.5 22q-2 8 -3 23.5t-11 37.5l-93 252q-23 53 -124 53h-306q-78 0 -94 -53l-69 -213q-8 -18 -9 -53q0 -94 181 -94v-70h-461z M422 600q0 -31 76 -31h258q61 0 61 25q0 10 -22 68l-170 438l-181 -430q-23 -49 -22 -70zM506 1603q51 29 98 68t93 73.5t91 59.5t88 25q53 0 69.5 -27t16.5 -53q0 -39 -51 -67t-119.5 -50.5t-139 -41.5t-109.5 -42z" />
<glyph unicode="&#xc2;" horiz-adv-x="1343" d="M-8 0v70q59 4 101 40.5t71 106.5l491 1172l62 -25l485 -1217q29 -43 45 -53q4 -4 34 -11t83 -22v-61h-561v61q29 4 60.5 8.5t57 10.5t43 15t17.5 22q-2 8 -3 23.5t-11 37.5l-93 252q-23 53 -124 53h-306q-78 0 -94 -53l-69 -213q-8 -18 -9 -53q0 -94 181 -94v-70h-461z M398 1605l274 224l275 -226l-80 -55l-195 113l-203 -113zM422 600q0 -31 76 -31h258q61 0 61 25q0 10 -22 68l-170 438l-181 -430q-23 -49 -22 -70z" />
<glyph unicode="&#xc3;" horiz-adv-x="1343" d="M-8 0v70q59 4 101 40.5t71 106.5l491 1172l62 -25l485 -1217q29 -43 45 -53q4 -4 34 -11t83 -22v-61h-561v61q29 4 60.5 8.5t57 10.5t43 15t17.5 22q-2 8 -3 23.5t-11 37.5l-93 252q-23 53 -124 53h-306q-78 0 -94 -53l-69 -213q-8 -18 -9 -53q0 -94 181 -94v-70h-461z M318 1626q10 41 34.5 73.5t57.5 56t67.5 37t67.5 13.5q61 0 97 -15.5t61.5 -35t50 -34.5t65.5 -15q37 0 64 14t57 78l86 -37q-23 -84 -85 -133t-140 -49q-43 0 -79 15t-68.5 34.5t-63.5 35t-63 15.5q-76 0 -131 -96zM422 600q0 -31 76 -31h258q61 0 61 25q0 10 -22 68 l-170 438l-181 -430q-23 -49 -22 -70z" />
<glyph unicode="&#xc4;" horiz-adv-x="1343" d="M-8 0v70q59 4 101 40.5t71 106.5l491 1172l62 -25l485 -1217q29 -43 45 -53q4 -4 34 -11t83 -22v-61h-561v61q29 4 60.5 8.5t57 10.5t43 15t17.5 22q-2 8 -3 23.5t-11 37.5l-93 252q-23 53 -124 53h-306q-78 0 -94 -53l-69 -213q-8 -18 -9 -53q0 -94 181 -94v-70h-461z M350 1749q0 117 119 116q109 0 108 -116q1 -125 -116 -125q-111 0 -111 125zM422 600q0 -31 76 -31h258q61 0 61 25q0 10 -22 68l-170 438l-181 -430q-23 -49 -22 -70zM772 1749q0 117 117 116q111 0 110 -116q1 -125 -116 -125q-111 0 -111 125z" />
<glyph unicode="&#xc5;" horiz-adv-x="1343" d="M-8 0v70q59 4 101 40.5t71 106.5l491 1172l62 -25l485 -1217q29 -43 45 -53q4 -4 34 -11t83 -22v-61h-561v61q29 4 60.5 8.5t57 10.5t43 15t17.5 22q-2 8 -3 23.5t-11 37.5l-93 252q-23 53 -124 53h-306q-78 0 -94 -53l-69 -213q-8 -18 -9 -53q0 -94 181 -94v-70h-461z M422 600q0 -31 76 -31h258q61 0 61 25q0 10 -22 68l-170 438l-181 -430q-23 -49 -22 -70zM473 1630q0 41 15 77t42 63.5t61.5 43t75.5 15.5t78 -15.5t64.5 -43t43 -63.5t15.5 -77t-15.5 -78t-43 -64.5t-64.5 -44t-78 -16.5t-75.5 16.5t-61.5 44t-42 64.5t-15 78zM542 1630 q0 -66 35 -99.5t90 -33.5q53 0 89 33.5t36 99.5q0 53 -36 91t-89 38q-55 0 -90 -38t-35 -91z" />
<glyph unicode="&#xc6;" horiz-adv-x="1869" d="M-6 0v70q113 8 172 147l418 985q4 16 4 15q0 47 -160 47v94h1294l17 -383l-62 -8q-20 111 -58 172t-90 91t-119 35t-146 5h-56q-156 0 -155 -92v-367q0 -61 47 -61h69q51 0 95.5 5t78 26.5t55 65.5t29.5 120h78v-531h-78q-8 76 -24.5 121t-46 67.5t-74.5 30t-113 7.5h-24 q-92 0 -92 -68v-391q0 -117 164 -117h61q131 0 210 20.5t128 61.5t77.5 104.5t59.5 149.5l57 -16l-57 -406h-1091v61q188 0 188 134v245q-4 43 -47 43h-357q-78 0 -94 -53l-69 -213q-4 -10 -6.5 -23.5t-2.5 -29.5q0 -94 181 -94v-70h-461zM424 600q0 -31 76 -31h301 q43 0 49 37v611q0 47 -55 47h-47q-51 0 -80 -64l-222 -530q-10 -25 -16 -41.5t-6 -28.5z" />
<glyph unicode="&#xc7;" horiz-adv-x="1339" d="M98 655q0 160 51.5 293t138.5 229.5t202.5 149.5t246.5 53q158 0 297 -94q72 74 148 86q6 -6 18 -46t23.5 -103.5t19.5 -145.5t8 -172h-69q-47 197 -164 296t-273 99q-113 0 -192.5 -48t-130.5 -126.5t-74.5 -179t-23.5 -205.5q0 -145 25.5 -269t80.5 -215t143.5 -143.5 t210.5 -52.5q78 0 140.5 16.5t115 56.5t96.5 108.5t85 171.5l61 -23q-18 -106 -68.5 -185t-123 -131t-163.5 -79t-190 -27q-145 0 -263 52.5t-202 144.5t-129 218t-45 271zM588 -190q0 49 30.5 76.5t82.5 27.5q59 0 93 -35t34 -98q0 -88 -42 -141.5t-128 -94.5l-33 54 q47 18 63.5 39.5t16.5 50.5q0 25 -21 24q-96 0 -96 97z" />
<glyph unicode="&#xc8;" horiz-adv-x="1320" d="M98 1294v64h1076l16 -383l-64 -8q-18 111 -55 172t-89 91t-119.5 35t-147.5 5h-58q-156 0 -155 -92v-367q0 -61 49 -61h70q51 0 95 5t77.5 26.5t55 65.5t30.5 120h75v-531h-75q-8 76 -24.5 120t-47.5 67.5t-76 31t-110 7.5h-25q-94 0 -94 -68v-391q0 -117 164 -117h63 q129 0 208 19.5t128 61.5t79 105.5t60 149.5l56 -16l-56 -406h-1091v61q188 0 188 134v927q0 172 -203 172zM406 1749q0 27 17 53.5t75 26.5q37 0 76.5 -22.5t84 -56.5t95.5 -73t112 -74l-39 -55q-66 31 -139.5 51.5t-135.5 42t-104 46t-42 61.5z" />
<glyph unicode="&#xc9;" horiz-adv-x="1320" d="M98 1294v64h1076l16 -383l-64 -8q-18 111 -55 172t-89 91t-119.5 35t-147.5 5h-58q-156 0 -155 -92v-367q0 -61 49 -61h70q51 0 95 5t77.5 26.5t55 65.5t30.5 120h75v-531h-75q-8 76 -24.5 120t-47.5 67.5t-76 31t-110 7.5h-25q-94 0 -94 -68v-391q0 -117 164 -117h63 q129 0 208 19.5t128 61.5t79 105.5t60 149.5l56 -16l-56 -406h-1091v61q188 0 188 134v927q0 172 -203 172zM533 1603q51 29 98 68t93 73.5t91 59.5t88 25q53 0 69.5 -27t16.5 -53q0 -39 -51 -67t-119.5 -50.5t-139 -41.5t-109.5 -42z" />
<glyph unicode="&#xca;" horiz-adv-x="1320" d="M98 1294v64h1076l16 -383l-64 -8q-18 111 -55 172t-89 91t-119.5 35t-147.5 5h-58q-156 0 -155 -92v-367q0 -61 49 -61h70q51 0 95 5t77.5 26.5t55 65.5t30.5 120h75v-531h-75q-8 76 -24.5 120t-47.5 67.5t-76 31t-110 7.5h-25q-94 0 -94 -68v-391q0 -117 164 -117h63 q129 0 208 19.5t128 61.5t79 105.5t60 149.5l56 -16l-56 -406h-1091v61q188 0 188 134v927q0 172 -203 172zM424 1605l274 224l275 -226l-80 -55l-195 113l-203 -113z" />
<glyph unicode="&#xcb;" horiz-adv-x="1320" d="M98 1294v64h1076l16 -383l-64 -8q-18 111 -55 172t-89 91t-119.5 35t-147.5 5h-58q-156 0 -155 -92v-367q0 -61 49 -61h70q51 0 95 5t77.5 26.5t55 65.5t30.5 120h75v-531h-75q-8 76 -24.5 120t-47.5 67.5t-76 31t-110 7.5h-25q-94 0 -94 -68v-391q0 -117 164 -117h63 q129 0 208 19.5t128 61.5t79 105.5t60 149.5l56 -16l-56 -406h-1091v61q188 0 188 134v927q0 172 -203 172zM377 1749q0 117 119 116q109 0 108 -116q1 -125 -116 -125q-111 0 -111 125zM799 1749q0 117 117 116q111 0 110 -116q1 -125 -116 -125q-111 0 -111 125z" />
<glyph unicode="&#xcc;" horiz-adv-x="794" d="M98 1294v64h592v-64q-188 0 -188 -180v-911q0 -141 196 -142v-61h-592v61q195 0 195 142v911q0 180 -203 180zM107 1749q0 27 17 53.5t75 26.5q37 0 76.5 -22.5t84 -56.5t95.5 -73t112 -74l-39 -55q-66 31 -139.5 51.5t-135.5 42t-104 46t-42 61.5z" />
<glyph unicode="&#xcd;" horiz-adv-x="794" d="M98 1294v64h592v-64q-188 0 -188 -180v-911q0 -141 196 -142v-61h-592v61q195 0 195 142v911q0 180 -203 180zM230 1603q51 29 98 68t93 73.5t91 59.5t88 25q53 0 69.5 -27t16.5 -53q0 -39 -51 -67t-119.5 -50.5t-139 -41.5t-109.5 -42z" />
<glyph unicode="&#xce;" horiz-adv-x="794" d="M98 1294v64h592v-64q-188 0 -188 -180v-911q0 -141 196 -142v-61h-592v61q195 0 195 142v911q0 180 -203 180zM123 1605l274 224l275 -226l-80 -55l-195 113l-203 -113z" />
<glyph unicode="&#xcf;" horiz-adv-x="794" d="M78 1749q0 117 119 116q109 0 108 -116q1 -125 -116 -125q-111 0 -111 125zM98 1294v64h592v-64q-188 0 -188 -180v-911q0 -141 196 -142v-61h-592v61q195 0 195 142v911q0 180 -203 180zM500 1749q0 117 117 116q111 0 110 -116q1 -125 -116 -125q-111 0 -111 125z" />
<glyph unicode="&#xd0;" horiz-adv-x="1552" d="M98 1294v64q41 -6 86 -7t92 -1q61 0 115.5 2t107 5t109 5t121.5 2q174 0 309.5 -47t227.5 -135t140 -216t48 -288q0 -156 -47 -281t-148.5 -213t-259 -136t-378.5 -48h-515v61q61 0 99.5 6.5t60 26t28.5 57t7 99.5v395h-111v125h111v330q0 72 -10 107.5t-35 51 t-63.5 19.5t-94.5 16zM502 236q0 -55 9 -87t30.5 -47.5t56.5 -18.5t86 -3h61q242 0 359 144.5t117 453.5q0 307 -131.5 453.5t-378.5 146.5h-82q-37 0 -61.5 -3t-39 -16.5t-20.5 -38t-6 -67.5v-383h372v-125h-372v-409z" />
<glyph unicode="&#xd1;" horiz-adv-x="1521" d="M41 1294v64h375l803 -1022v733q0 225 -209 225v64h489v-64q-188 0 -188 -225v-1077l-54 -15l-905 1153v-825q0 -244 211 -244v-61h-491v61q172 0 172 244v903q0 86 -203 86zM408 1626q10 41 34.5 73.5t57.5 56t67.5 37t67.5 13.5q61 0 97 -15.5t61.5 -35t50 -34.5 t65.5 -15q37 0 64 14t57 78l86 -37q-23 -84 -85 -133t-140 -49q-43 0 -79 15t-68.5 34.5t-63.5 35t-63 15.5q-76 0 -131 -96z" />
<glyph unicode="&#xd2;" horiz-adv-x="1527" d="M84 670q0 135 47 263t135 227.5t212 159.5t276 60q150 0 275.5 -52t216.5 -145t142.5 -220t51.5 -277q0 -131 -49.5 -260t-138.5 -230.5t-215.5 -164t-282.5 -62.5q-145 0 -268.5 54.5t-212.5 149.5t-139 223t-50 274zM317 686q0 -135 27 -252t82 -203t141 -135t203 -49 q115 0 197 48t135 132t78.5 198t25.5 245q0 123 -25.5 237.5t-81 203.5t-144.5 143.5t-216 54.5q-117 0 -197.5 -51.5t-131 -137.5t-72 -198.5t-21.5 -235.5zM471 1749q0 27 17 53.5t75 26.5q37 0 76.5 -22.5t84 -56.5t95.5 -73t112 -74l-39 -55q-66 31 -139.5 51.5 t-135.5 42t-104 46t-42 61.5z" />
<glyph unicode="&#xd3;" horiz-adv-x="1527" d="M84 670q0 135 47 263t135 227.5t212 159.5t276 60q150 0 275.5 -52t216.5 -145t142.5 -220t51.5 -277q0 -131 -49.5 -260t-138.5 -230.5t-215.5 -164t-282.5 -62.5q-145 0 -268.5 54.5t-212.5 149.5t-139 223t-50 274zM317 686q0 -135 27 -252t82 -203t141 -135t203 -49 q115 0 197 48t135 132t78.5 198t25.5 245q0 123 -25.5 237.5t-81 203.5t-144.5 143.5t-216 54.5q-117 0 -197.5 -51.5t-131 -137.5t-72 -198.5t-21.5 -235.5zM598 1603q51 29 98 68t93 73.5t91 59.5t88 25q53 0 69.5 -27t16.5 -53q0 -39 -51 -67t-119.5 -50.5t-139 -41.5 t-109.5 -42z" />
<glyph unicode="&#xd4;" horiz-adv-x="1527" d="M84 670q0 135 47 263t135 227.5t212 159.5t276 60q150 0 275.5 -52t216.5 -145t142.5 -220t51.5 -277q0 -131 -49.5 -260t-138.5 -230.5t-215.5 -164t-282.5 -62.5q-145 0 -268.5 54.5t-212.5 149.5t-139 223t-50 274zM317 686q0 -135 27 -252t82 -203t141 -135t203 -49 q115 0 197 48t135 132t78.5 198t25.5 245q0 123 -25.5 237.5t-81 203.5t-144.5 143.5t-216 54.5q-117 0 -197.5 -51.5t-131 -137.5t-72 -198.5t-21.5 -235.5zM490 1605l274 224l275 -226l-80 -55l-195 113l-203 -113z" />
<glyph unicode="&#xd5;" horiz-adv-x="1527" d="M84 670q0 135 47 263t135 227.5t212 159.5t276 60q150 0 275.5 -52t216.5 -145t142.5 -220t51.5 -277q0 -131 -49.5 -260t-138.5 -230.5t-215.5 -164t-282.5 -62.5q-145 0 -268.5 54.5t-212.5 149.5t-139 223t-50 274zM317 686q0 -135 27 -252t82 -203t141 -135t203 -49 q115 0 197 48t135 132t78.5 198t25.5 245q0 123 -25.5 237.5t-81 203.5t-144.5 143.5t-216 54.5q-117 0 -197.5 -51.5t-131 -137.5t-72 -198.5t-21.5 -235.5zM410 1626q10 41 34.5 73.5t57.5 56t67.5 37t67.5 13.5q61 0 97 -15.5t61.5 -35t50 -34.5t65.5 -15q37 0 64 14 t57 78l86 -37q-23 -84 -85 -133t-140 -49q-43 0 -79 15t-68.5 34.5t-63.5 35t-63 15.5q-76 0 -131 -96z" />
<glyph unicode="&#xd6;" horiz-adv-x="1527" d="M84 670q0 135 47 263t135 227.5t212 159.5t276 60q150 0 275.5 -52t216.5 -145t142.5 -220t51.5 -277q0 -131 -49.5 -260t-138.5 -230.5t-215.5 -164t-282.5 -62.5q-145 0 -268.5 54.5t-212.5 149.5t-139 223t-50 274zM317 686q0 -135 27 -252t82 -203t141 -135t203 -49 q115 0 197 48t135 132t78.5 198t25.5 245q0 123 -25.5 237.5t-81 203.5t-144.5 143.5t-216 54.5q-117 0 -197.5 -51.5t-131 -137.5t-72 -198.5t-21.5 -235.5zM442 1749q0 117 119 116q109 0 108 -116q1 -125 -116 -125q-111 0 -111 125zM864 1749q0 117 117 116 q111 0 110 -116q1 -125 -116 -125q-111 0 -111 125z" />
<glyph unicode="&#xd7;" horiz-adv-x="1122" d="M176 967l96 94l277 -275l278 281l101 -100l-281 -281l275 -276l-95 -95l-272 279l-272 -272l-101 100l273 268z" />
<glyph unicode="&#xd8;" horiz-adv-x="1527" d="M84 670q0 135 47 263t135 227.5t212 159.5t276 60q63 0 119.5 -10t109.5 -27l33 82l84 -26l-35 -90q86 -41 154.5 -103.5t117.5 -142.5t76 -175t27 -202q0 -131 -49.5 -260t-138.5 -230.5t-216 -164t-282 -62.5q-98 0 -195 29l-43 -102l-84 32l43 99q-88 41 -160.5 105.5 t-124 147t-79 182t-27.5 208.5zM317 686q0 -184 47.5 -327.5t151.5 -227.5l434 1129q-45 23 -97 36t-114 13q-117 0 -197.5 -51.5t-131 -137.5t-72 -198.5t-21.5 -235.5zM592 84q37 -20 82 -28.5t96 -8.5q115 0 197 48t135 132t78.5 198t25.5 245q0 160 -42 302t-140 232z " />
<glyph unicode="&#xd9;" horiz-adv-x="1542" d="M84 1294v64h592v-64q-195 0 -195 -149v-678q0 -70 7.5 -142.5t44 -131t113.5 -95.5t218 -37q131 0 210 40t120 99.5t54.5 131t13.5 135.5v647q0 180 -211 180v64h475v-64q-170 0 -170 -180v-622q0 -117 -20.5 -213.5t-83 -165t-177 -106.5t-305.5 -38q-121 0 -212 33 t-153.5 92.5t-94 141t-31.5 178.5v731q0 150 -195 149zM519 1749q0 27 17 53.5t75 26.5q37 0 76.5 -22.5t84 -56.5t95.5 -73t112 -74l-39 -55q-66 31 -139.5 51.5t-135.5 42t-104 46t-42 61.5z" />
<glyph unicode="&#xda;" horiz-adv-x="1542" d="M84 1294v64h592v-64q-195 0 -195 -149v-678q0 -70 7.5 -142.5t44 -131t113.5 -95.5t218 -37q131 0 210 40t120 99.5t54.5 131t13.5 135.5v647q0 180 -211 180v64h475v-64q-170 0 -170 -180v-622q0 -117 -20.5 -213.5t-83 -165t-177 -106.5t-305.5 -38q-121 0 -212 33 t-153.5 92.5t-94 141t-31.5 178.5v731q0 150 -195 149zM641 1603q51 29 98 68t93 73.5t91 59.5t88 25q53 0 69.5 -27t16.5 -53q0 -39 -51 -67t-119.5 -50.5t-139 -41.5t-109.5 -42z" />
<glyph unicode="&#xdb;" horiz-adv-x="1542" d="M84 1294v64h592v-64q-195 0 -195 -149v-678q0 -70 7.5 -142.5t44 -131t113.5 -95.5t218 -37q131 0 210 40t120 99.5t54.5 131t13.5 135.5v647q0 180 -211 180v64h475v-64q-170 0 -170 -180v-622q0 -117 -20.5 -213.5t-83 -165t-177 -106.5t-305.5 -38q-121 0 -212 33 t-153.5 92.5t-94 141t-31.5 178.5v731q0 150 -195 149zM537 1605l274 224l275 -226l-80 -55l-195 113l-203 -113z" />
<glyph unicode="&#xdc;" horiz-adv-x="1542" d="M84 1294v64h592v-64q-195 0 -195 -149v-678q0 -70 7.5 -142.5t44 -131t113.5 -95.5t218 -37q131 0 210 40t120 99.5t54.5 131t13.5 135.5v647q0 180 -211 180v64h475v-64q-170 0 -170 -180v-622q0 -117 -20.5 -213.5t-83 -165t-177 -106.5t-305.5 -38q-121 0 -212 33 t-153.5 92.5t-94 141t-31.5 178.5v731q0 150 -195 149zM487 1749q0 117 119 116q109 0 108 -116q1 -125 -116 -125q-111 0 -111 125zM909 1749q0 117 117 116q111 0 110 -116q1 -125 -116 -125q-111 0 -111 125z" />
<glyph unicode="&#xdd;" horiz-adv-x="1282" d="M-23 1294v64h560v-64q-147 0 -148 -69q0 -16 8.5 -30.5t24.5 -41.5l289 -483l264 475q6 20 10 42.5t4 45.5q0 61 -164 61v64h475v-64q-106 0 -161 -77l-383 -656v-414q0 -86 202 -86v-61h-622v61q209 0 209 95v399l-342 567q-104 172 -226 172zM512 1603q51 29 98 68 t93 73.5t91 59.5t88 25q53 0 69.5 -27t16.5 -53q0 -39 -51 -67t-119.5 -50.5t-139 -41.5t-109.5 -42z" />
<glyph unicode="&#xde;" horiz-adv-x="1267" d="M90 1294v64h592v-64q-186 0 -186 -180v-43q66 4 124 4h121q457 0 457 -397q0 -78 -27.5 -146.5t-85 -119t-145.5 -79t-207 -28.5q-66 0 -122 5t-115 18v-111q0 -156 202 -156v-61h-600v61q195 4 195 148v905q0 180 -203 180zM496 406q51 -10 106 -17.5t131 -7.5 q68 0 116 25.5t77.5 67.5t44 97.5t14.5 114.5q0 80 -21.5 140.5t-68.5 100.5t-124 60.5t-189 20.5q-82 0 -86 -95v-507z" />
<glyph unicode="&#xdf;" horiz-adv-x="1085" d="M68 0v61q133 0 133 103v811q0 436 391 436q342 0 342 -328q0 -211 -180 -272v-16q274 -31 274 -334q0 -483 -352 -484q-225 0 -225 195q0 94 94 94q70 0 69 -63q0 -61 -39 -62q0 -41 11.5 -60.5t58.5 -19.5q178 0 178 400q0 258 -231 258v67q178 0 178 297 q0 244 -178 244q-221 0 -221 -252v-1075h-303z" />
<glyph unicode="&#xe0;" horiz-adv-x="907" d="M68 170q0 252 507 344v80q0 201 -155 201q-68 0 -117 -22.5t-49 -86.5q12 -8 18.5 -25.5t6.5 -35.5q0 -78 -95 -78q-35 0 -59.5 22.5t-24.5 69.5t29 90t75 75t106.5 51t123.5 19q170 0 242 -63t72 -211v-444q0 -76 69 -76q33 0 64 22l22 -16q-31 -109 -164 -109 q-117 0 -147 134q-147 -133 -313 -134q-109 0 -160 46.5t-51 146.5zM144 1225q0 27 17 53.5t75 26.5q37 0 76.5 -22.5t84 -56.5t95.5 -73t112 -74l-39 -55q-66 31 -139.5 51.5t-135.5 42t-104 46t-42 61.5zM242 203q0 -133 129 -133q57 0 95 17t61.5 46t37 63.5t19.5 69.5 v178q-63 -6 -125 -21t-110 -43t-77.5 -71t-29.5 -106z" />
<glyph unicode="&#xe1;" horiz-adv-x="907" d="M68 170q0 252 507 344v80q0 201 -155 201q-68 0 -117 -22.5t-49 -86.5q12 -8 18.5 -25.5t6.5 -35.5q0 -78 -95 -78q-35 0 -59.5 22.5t-24.5 69.5t29 90t75 75t106.5 51t123.5 19q170 0 242 -63t72 -211v-444q0 -76 69 -76q33 0 64 22l22 -16q-31 -109 -164 -109 q-117 0 -147 134q-147 -133 -313 -134q-109 0 -160 46.5t-51 146.5zM242 203q0 -133 129 -133q57 0 95 17t61.5 46t37 63.5t19.5 69.5v178q-63 -6 -125 -21t-110 -43t-77.5 -71t-29.5 -106zM266 1079q51 29 98 68t93 73.5t91 59.5t88 25q53 0 69.5 -27t16.5 -53 q0 -39 -51 -67t-119.5 -50.5t-139 -41.5t-109.5 -42z" />
<glyph unicode="&#xe2;" horiz-adv-x="907" d="M68 170q0 252 507 344v80q0 201 -155 201q-68 0 -117 -22.5t-49 -86.5q12 -8 18.5 -25.5t6.5 -35.5q0 -78 -95 -78q-35 0 -59.5 22.5t-24.5 69.5t29 90t75 75t106.5 51t123.5 19q170 0 242 -63t72 -211v-444q0 -76 69 -76q33 0 64 22l22 -16q-31 -109 -164 -109 q-117 0 -147 134q-147 -133 -313 -134q-109 0 -160 46.5t-51 146.5zM160 1081l274 224l275 -226l-80 -55l-195 113l-203 -113zM242 203q0 -133 129 -133q57 0 95 17t61.5 46t37 63.5t19.5 69.5v178q-63 -6 -125 -21t-110 -43t-77.5 -71t-29.5 -106z" />
<glyph unicode="&#xe3;" horiz-adv-x="907" d="M68 170q0 252 507 344v80q0 201 -155 201q-68 0 -117 -22.5t-49 -86.5q12 -8 18.5 -25.5t6.5 -35.5q0 -78 -95 -78q-35 0 -59.5 22.5t-24.5 69.5t29 90t75 75t106.5 51t123.5 19q170 0 242 -63t72 -211v-444q0 -76 69 -76q33 0 64 22l22 -16q-31 -109 -164 -109 q-117 0 -147 134q-147 -133 -313 -134q-109 0 -160 46.5t-51 146.5zM80 1102q10 41 34.5 73.5t57.5 56t67.5 37t67.5 13.5q61 0 97 -15.5t61.5 -35t50 -34.5t65.5 -15q37 0 64 14t57 78l86 -37q-23 -84 -85 -133t-140 -49q-43 0 -79 15t-68.5 34.5t-63.5 35t-63 15.5 q-76 0 -131 -96zM242 203q0 -133 129 -133q57 0 95 17t61.5 46t37 63.5t19.5 69.5v178q-63 -6 -125 -21t-110 -43t-77.5 -71t-29.5 -106z" />
<glyph unicode="&#xe4;" horiz-adv-x="907" d="M68 170q0 252 507 344v80q0 201 -155 201q-68 0 -117 -22.5t-49 -86.5q12 -8 18.5 -25.5t6.5 -35.5q0 -78 -95 -78q-35 0 -59.5 22.5t-24.5 69.5t29 90t75 75t106.5 51t123.5 19q170 0 242 -63t72 -211v-444q0 -76 69 -76q33 0 64 22l22 -16q-31 -109 -164 -109 q-117 0 -147 134q-147 -133 -313 -134q-109 0 -160 46.5t-51 146.5zM110 1225q0 117 119 116q109 0 108 -116q1 -125 -116 -125q-111 0 -111 125zM242 203q0 -133 129 -133q57 0 95 17t61.5 46t37 63.5t19.5 69.5v178q-63 -6 -125 -21t-110 -43t-77.5 -71t-29.5 -106z M532 1225q0 117 117 116q111 0 110 -116q1 -125 -116 -125q-111 0 -111 125z" />
<glyph unicode="&#xe5;" horiz-adv-x="907" d="M68 170q0 252 507 344v80q0 201 -155 201q-68 0 -117 -22.5t-49 -86.5q12 -8 18.5 -25.5t6.5 -35.5q0 -78 -95 -78q-35 0 -59.5 22.5t-24.5 69.5t29 90t75 75t106.5 51t123.5 19q170 0 242 -63t72 -211v-444q0 -76 69 -76q33 0 64 22l22 -16q-31 -109 -164 -109 q-117 0 -147 134q-147 -133 -313 -134q-109 0 -160 46.5t-51 146.5zM236 1106q0 41 15 77t42 63.5t61.5 43t75.5 15.5t78 -15.5t64.5 -43t43 -63.5t15.5 -77t-15.5 -78t-43 -64.5t-64.5 -44t-78 -16.5t-75.5 16.5t-61.5 44t-42 64.5t-15 78zM242 203q0 -133 129 -133 q57 0 95 17t61.5 46t37 63.5t19.5 69.5v178q-63 -6 -125 -21t-110 -43t-77.5 -71t-29.5 -106zM305 1106q0 -66 35 -99.5t90 -33.5q53 0 89 33.5t36 99.5q0 53 -36 91t-89 38q-55 0 -90 -38t-35 -91z" />
<glyph unicode="&#xe6;" horiz-adv-x="1417" d="M68 178q0 244 507 336v80q0 201 -155 201q-35 0 -62.5 -3.5t-49 -13.5t-33 -32.5t-11.5 -59.5q6 -14 10.5 -28.5t4.5 -32.5q0 -78 -103 -78q-76 0 -76 92q0 47 29 88t75 72.5t106.5 51t123.5 23.5q119 0 186.5 -29.5t96.5 -86.5q106 117 266 116q51 0 111.5 -15t116 -57 t96.5 -114t53 -182q0 -29 -8 -45h-547q-39 0 -39 -31q0 -74 20.5 -136.5t58.5 -108.5t91 -72.5t119 -26.5q88 0 148.5 42t107.5 108l49 -33q-111 -225 -361 -226q-135 0 -216 48.5t-140 148.5q-98 -197 -364 -197q-211 0 -211 201zM242 203q0 -133 129 -133q59 0 98 18 t63.5 48t36 68t15.5 77v163q-61 -8 -123 -22t-111 -42t-78.5 -71t-29.5 -106zM766 547q0 -25 47 -25h264q88 0 88 86q-10 78 -56 136.5t-132 58.5q-47 0 -86 -21.5t-66.5 -57.5t-43 -82t-15.5 -95z" />
<glyph unicode="&#xe7;" horiz-adv-x="825" d="M68 399q0 96 27.5 182.5t84 152t141.5 103t199 37.5q49 0 97.5 -14t86 -39.5t60 -62.5t22.5 -80q0 -41 -34.5 -70.5t-75.5 -29.5q-84 0 -84 92q0 6 3 26.5t3 36.5q0 41 -38 59.5t-79 18.5q-59 0 -101 -31.5t-69.5 -82t-41 -112t-13.5 -118.5q0 -82 16.5 -152.5t49 -123 t84 -82t122.5 -29.5q137 0 220 123l53 -31q-20 -55 -59.5 -95t-87.5 -65.5t-101 -38t-102 -12.5q-90 0 -162 34t-121 93t-74.5 139t-25.5 172zM332 -190q0 49 30.5 76.5t82.5 27.5q59 0 93 -35t34 -98q0 -88 -42 -141.5t-128 -94.5l-33 54q47 18 63.5 39.5t16.5 50.5 q0 25 -21 24q-96 0 -96 97z" />
<glyph unicode="&#xe8;" horiz-adv-x="880" d="M47 406q0 92 28.5 176t81 149.5t126 104t163.5 38.5q55 0 116 -13t114 -52t92 -111.5t51 -191.5q0 -25 -6 -45h-545q-39 0 -39 -31q0 -74 20.5 -139.5t57.5 -114.5t90.5 -76.5t118.5 -27.5q86 0 148.5 49t109.5 115l45 -33q-53 -115 -143 -178.5t-213 -63.5 q-102 0 -180 35t-130.5 94.5t-79 141t-26.5 174.5zM148 1225q0 27 17 53.5t75 26.5q37 0 76.5 -22.5t84 -56.5t95.5 -73t112 -74l-39 -55q-66 31 -139.5 51.5t-135.5 42t-104 46t-42 61.5zM229 547q0 -25 45 -25h267q84 0 84 86q-6 78 -52.5 136.5t-134.5 58.5 q-47 0 -86 -21.5t-66.5 -57.5t-42 -82t-14.5 -95z" />
<glyph unicode="&#xe9;" horiz-adv-x="880" d="M47 406q0 92 28.5 176t81 149.5t126 104t163.5 38.5q55 0 116 -13t114 -52t92 -111.5t51 -191.5q0 -25 -6 -45h-545q-39 0 -39 -31q0 -74 20.5 -139.5t57.5 -114.5t90.5 -76.5t118.5 -27.5q86 0 148.5 49t109.5 115l45 -33q-53 -115 -143 -178.5t-213 -63.5 q-102 0 -180 35t-130.5 94.5t-79 141t-26.5 174.5zM229 547q0 -25 45 -25h267q84 0 84 86q-6 78 -52.5 136.5t-134.5 58.5q-47 0 -86 -21.5t-66.5 -57.5t-42 -82t-14.5 -95zM273 1079q51 29 98 68t93 73.5t91 59.5t88 25q53 0 69.5 -27t16.5 -53q0 -39 -51 -67t-119.5 -50.5 t-139 -41.5t-109.5 -42z" />
<glyph unicode="&#xea;" horiz-adv-x="880" d="M47 406q0 92 28.5 176t81 149.5t126 104t163.5 38.5q55 0 116 -13t114 -52t92 -111.5t51 -191.5q0 -25 -6 -45h-545q-39 0 -39 -31q0 -74 20.5 -139.5t57.5 -114.5t90.5 -76.5t118.5 -27.5q86 0 148.5 49t109.5 115l45 -33q-53 -115 -143 -178.5t-213 -63.5 q-102 0 -180 35t-130.5 94.5t-79 141t-26.5 174.5zM166 1081l274 224l275 -226l-80 -55l-195 113l-203 -113zM229 547q0 -25 45 -25h267q84 0 84 86q-6 78 -52.5 136.5t-134.5 58.5q-47 0 -86 -21.5t-66.5 -57.5t-42 -82t-14.5 -95z" />
<glyph unicode="&#xeb;" horiz-adv-x="880" d="M47 406q0 92 28.5 176t81 149.5t126 104t163.5 38.5q55 0 116 -13t114 -52t92 -111.5t51 -191.5q0 -25 -6 -45h-545q-39 0 -39 -31q0 -74 20.5 -139.5t57.5 -114.5t90.5 -76.5t118.5 -27.5q86 0 148.5 49t109.5 115l45 -33q-53 -115 -143 -178.5t-213 -63.5 q-102 0 -180 35t-130.5 94.5t-79 141t-26.5 174.5zM117 1225q0 117 119 116q109 0 108 -116q1 -125 -116 -125q-111 0 -111 125zM229 547q0 -25 45 -25h267q84 0 84 86q-6 78 -52.5 136.5t-134.5 58.5q-47 0 -86 -21.5t-66.5 -57.5t-42 -82t-14.5 -95zM539 1225 q0 117 117 116q111 0 110 -116q1 -125 -116 -125q-111 0 -111 125z" />
<glyph unicode="&#xec;" horiz-adv-x="602" d="M-8 1225q0 27 17 53.5t75 26.5q37 0 76.5 -22.5t84 -56.5t95.5 -73t112 -74l-39 -55q-66 31 -139.5 51.5t-135.5 42t-104 46t-42 61.5zM68 0v61q141 0 141 125v408q0 162 -125 162v55l295 63v-696q0 -117 156 -117v-61h-467z" />
<glyph unicode="&#xed;" horiz-adv-x="602" d="M68 0v61q141 0 141 125v408q0 162 -125 162v55l295 63v-696q0 -117 156 -117v-61h-467zM115 1079q51 29 98 68t93 73.5t91 59.5t88 25q53 0 69.5 -27t16.5 -53q0 -39 -51 -67t-119.5 -50.5t-139 -41.5t-109.5 -42z" />
<glyph unicode="&#xee;" horiz-adv-x="602" d="M11 1081l274 224l275 -226l-80 -55l-195 113l-203 -113zM68 0v61q141 0 141 125v408q0 162 -125 162v55l295 63v-696q0 -117 156 -117v-61h-467z" />
<glyph unicode="&#xef;" horiz-adv-x="602" d="M-37 1225q0 117 119 116q109 0 108 -116q1 -125 -116 -125q-111 0 -111 125zM68 0v61q141 0 141 125v408q0 162 -125 162v55l295 63v-696q0 -117 156 -117v-61h-467zM385 1225q0 117 117 116q111 0 110 -116q1 -125 -116 -125q-111 0 -111 125z" />
<glyph unicode="&#xf0;" d="M47 457q0 106 34 184t87 130t118.5 77.5t131.5 25.5q68 0 131 -20t104 -49q-37 68 -85 137.5t-105 138.5l-158 -120l-53 73l151 113q-45 51 -93 98t-99 90l61 76q66 -47 124.5 -91t111.5 -91l213 162l51 -72l-194 -150q78 -74 139 -153.5t103 -168.5t64.5 -192.5 t22.5 -224.5q0 -109 -34.5 -196t-94 -147t-137.5 -93t-164 -33q-96 0 -176 34t-136 97.5t-87 155.5t-31 209zM238 492q0 -68 8 -149t33.5 -149.5t74.5 -115.5t131 -47q80 0 126 35.5t71 85t32 102.5t7 88q0 68 -8 148.5t-34 149.5t-74 116t-128 47q-82 0 -129 -36t-71.5 -85 t-31.5 -102.5t-7 -87.5z" />
<glyph unicode="&#xf1;" horiz-adv-x="1132" d="M43 750v53l295 71q8 -8 8 -40v-123q16 31 42 60.5t63.5 52t89 36.5t116.5 14q37 0 84 -15t90 -49t72 -87t29 -129v-453q0 -80 133 -80v-61h-438v61q133 0 133 86v336q0 281 -201 281q-205 0 -205 -250v-367q0 -86 148 -86v-61h-434v61q115 0 114 95v522q0 72 -110 72h-29 zM213 1102q10 41 34.5 73.5t57.5 56t67.5 37t67.5 13.5q61 0 97 -15.5t61.5 -35t50 -34.5t65.5 -15q37 0 64 14t57 78l86 -37q-23 -84 -85 -133t-140 -49q-43 0 -79 15t-68.5 34.5t-63.5 35t-63 15.5q-76 0 -131 -96z" />
<glyph unicode="&#xf2;" d="M47 406q0 106 35 193t94.5 148.5t139 94t169.5 32.5q92 0 170 -35.5t134.5 -96t87 -141.5t30.5 -171q0 -109 -34.5 -196t-94 -147t-137.5 -93t-164 -33q-96 0 -176 36t-136 96.5t-87 141t-31 171.5zM185 1225q0 27 17 53.5t75 26.5q37 0 76.5 -22.5t84 -56.5t95.5 -73 t112 -74l-39 -55q-66 31 -139.5 51.5t-135.5 42t-104 46t-42 61.5zM238 492q0 -68 8 -149t33.5 -149.5t74.5 -115.5t131 -47q80 0 126 35.5t71 85t32 102.5t7 88q0 68 -8 148.5t-34 149.5t-74 116t-128 47q-82 0 -129 -36t-71.5 -85t-31.5 -102.5t-7 -87.5z" />
<glyph unicode="&#xf3;" d="M47 406q0 106 35 193t94.5 148.5t139 94t169.5 32.5q92 0 170 -35.5t134.5 -96t87 -141.5t30.5 -171q0 -109 -34.5 -196t-94 -147t-137.5 -93t-164 -33q-96 0 -176 36t-136 96.5t-87 141t-31 171.5zM238 492q0 -68 8 -149t33.5 -149.5t74.5 -115.5t131 -47q80 0 126 35.5 t71 85t32 102.5t7 88q0 68 -8 148.5t-34 149.5t-74 116t-128 47q-82 0 -129 -36t-71.5 -85t-31.5 -102.5t-7 -87.5zM312 1079q51 29 98 68t93 73.5t91 59.5t88 25q53 0 69.5 -27t16.5 -53q0 -39 -51 -67t-119.5 -50.5t-139 -41.5t-109.5 -42z" />
<glyph unicode="&#xf4;" d="M47 406q0 106 35 193t94.5 148.5t139 94t169.5 32.5q92 0 170 -35.5t134.5 -96t87 -141.5t30.5 -171q0 -109 -34.5 -196t-94 -147t-137.5 -93t-164 -33q-96 0 -176 36t-136 96.5t-87 141t-31 171.5zM203 1081l274 224l275 -226l-80 -55l-195 113l-203 -113zM238 492 q0 -68 8 -149t33.5 -149.5t74.5 -115.5t131 -47q80 0 126 35.5t71 85t32 102.5t7 88q0 68 -8 148.5t-34 149.5t-74 116t-128 47q-82 0 -129 -36t-71.5 -85t-31.5 -102.5t-7 -87.5z" />
<glyph unicode="&#xf5;" d="M47 406q0 106 35 193t94.5 148.5t139 94t169.5 32.5q92 0 170 -35.5t134.5 -96t87 -141.5t30.5 -171q0 -109 -34.5 -196t-94 -147t-137.5 -93t-164 -33q-96 0 -176 36t-136 96.5t-87 141t-31 171.5zM123 1102q10 41 34.5 73.5t57.5 56t67.5 37t67.5 13.5q61 0 97 -15.5 t61.5 -35t50 -34.5t65.5 -15q37 0 64 14t57 78l86 -37q-23 -84 -85 -133t-140 -49q-43 0 -79 15t-68.5 34.5t-63.5 35t-63 15.5q-76 0 -131 -96zM238 492q0 -68 8 -149t33.5 -149.5t74.5 -115.5t131 -47q80 0 126 35.5t71 85t32 102.5t7 88q0 68 -8 148.5t-34 149.5t-74 116 t-128 47q-82 0 -129 -36t-71.5 -85t-31.5 -102.5t-7 -87.5z" />
<glyph unicode="&#xf6;" d="M47 406q0 106 35 193t94.5 148.5t139 94t169.5 32.5q92 0 170 -35.5t134.5 -96t87 -141.5t30.5 -171q0 -109 -34.5 -196t-94 -147t-137.5 -93t-164 -33q-96 0 -176 36t-136 96.5t-87 141t-31 171.5zM156 1225q0 117 119 116q109 0 108 -116q1 -125 -116 -125 q-111 0 -111 125zM238 492q0 -68 8 -149t33.5 -149.5t74.5 -115.5t131 -47q80 0 126 35.5t71 85t32 102.5t7 88q0 68 -8 148.5t-34 149.5t-74 116t-128 47q-82 0 -129 -36t-71.5 -85t-31.5 -102.5t-7 -87.5zM578 1225q0 117 117 116q111 0 110 -116q1 -125 -116 -125 q-111 0 -111 125z" />
<glyph unicode="&#xf7;" horiz-adv-x="1103" d="M92 621v133h920v-133h-920zM412 336q0 133 141 133q131 0 131 -133q0 -131 -131 -131q-141 0 -141 131zM412 1024q0 131 141 131q131 0 131 -131q0 -133 -131 -133q-141 0 -141 133z" />
<glyph unicode="&#xf8;" d="M47 406q0 106 35 193t94.5 148.5t139 94t169.5 32.5q47 0 87 -9t79 -25l56 98l75 -33l-59 -106q86 -59 135 -155.5t49 -213.5q0 -109 -34.5 -196t-94 -147t-137.5 -93t-164 -33q-53 0 -100 11.5t-88 29.5l-60 -113l-73 41l61 115q-80 63 -125 156.5t-45 204.5zM238 492 q0 -74 7 -161t42 -159l319 582q-53 49 -129 49q-82 0 -129 -36t-71.5 -85t-31.5 -102.5t-7 -87.5zM336 92q57 -61 149 -61q80 0 126 35.5t71 85t32 102.5t7 88q0 78 -12.5 171t-51.5 167z" />
<glyph unicode="&#xf9;" horiz-adv-x="1097" d="M29 825l311 25v-522q0 -49 3 -94.5t18.5 -79t50 -54t100.5 -20.5q166 0 227 209v413q0 70 -147 70l-8 53l327 25v-686q0 -70 140 -78l16 -55l-313 -39q-6 14 -6 55v78q-20 -35 -45 -62.5t-59 -46t-79 -29t-106 -10.5q-78 0 -133.5 14.5t-90 50.5t-50 96.5t-15.5 150.5 v413q0 70 -133 70zM238 1225q0 27 17 53.5t75 26.5q37 0 76.5 -22.5t84 -56.5t95.5 -73t112 -74l-39 -55q-66 31 -139.5 51.5t-135.5 42t-104 46t-42 61.5z" />
<glyph unicode="&#xfa;" horiz-adv-x="1097" d="M29 825l311 25v-522q0 -49 3 -94.5t18.5 -79t50 -54t100.5 -20.5q166 0 227 209v413q0 70 -147 70l-8 53l327 25v-686q0 -70 140 -78l16 -55l-313 -39q-6 14 -6 55v78q-20 -35 -45 -62.5t-59 -46t-79 -29t-106 -10.5q-78 0 -133.5 14.5t-90 50.5t-50 96.5t-15.5 150.5 v413q0 70 -133 70zM363 1079q51 29 98 68t93 73.5t91 59.5t88 25q53 0 69.5 -27t16.5 -53q0 -39 -51 -67t-119.5 -50.5t-139 -41.5t-109.5 -42z" />
<glyph unicode="&#xfb;" horiz-adv-x="1097" d="M29 825l311 25v-522q0 -49 3 -94.5t18.5 -79t50 -54t100.5 -20.5q166 0 227 209v413q0 70 -147 70l-8 53l327 25v-686q0 -70 140 -78l16 -55l-313 -39q-6 14 -6 55v78q-20 -35 -45 -62.5t-59 -46t-79 -29t-106 -10.5q-78 0 -133.5 14.5t-90 50.5t-50 96.5t-15.5 150.5 v413q0 70 -133 70zM254 1081l274 224l275 -226l-80 -55l-195 113l-203 -113z" />
<glyph unicode="&#xfc;" horiz-adv-x="1097" d="M29 825l311 25v-522q0 -49 3 -94.5t18.5 -79t50 -54t100.5 -20.5q166 0 227 209v413q0 70 -147 70l-8 53l327 25v-686q0 -70 140 -78l16 -55l-313 -39q-6 14 -6 55v78q-20 -35 -45 -62.5t-59 -46t-79 -29t-106 -10.5q-78 0 -133.5 14.5t-90 50.5t-50 96.5t-15.5 150.5 v413q0 70 -133 70zM207 1225q0 117 119 116q109 0 108 -116q1 -125 -116 -125q-111 0 -111 125zM629 1225q0 117 117 116q111 0 110 -116q1 -125 -116 -125q-111 0 -111 125z" />
<glyph unicode="&#xfd;" horiz-adv-x="890" d="M-4 772v62h422v-62h-41q-76 0 -76 -47q2 -6 4 -16t4 -23.5t6 -30.5l211 -452l164 422q8 39 12.5 58t4.5 28q0 61 -134 61v62h351v-62q-86 0 -117 -70l-248 -622q-10 -20 -28.5 -60t-43 -89.5t-55.5 -100.5t-69.5 -93t-84 -68.5t-96.5 -26.5q-109 0 -108 100q0 102 78 102 q37 0 49 -17t17 -37.5t12.5 -38t31.5 -17.5q14 0 39 26.5t50.5 66.5t48 88t32.5 93l-319 684q-29 80 -117 80zM318 1079q51 29 98 68t93 73.5t91 59.5t88 25q53 0 69.5 -27t16.5 -53q0 -39 -51 -67t-119.5 -50.5t-139 -41.5t-109.5 -42z" />
<glyph unicode="&#xfe;" horiz-adv-x="1017" d="M27 1294v56l305 61v-700q39 86 112.5 124.5t151.5 38.5q100 0 172 -46t117 -111.5t65.5 -140t20.5 -132.5q0 -88 -26.5 -168.5t-75 -145t-118 -105.5t-155.5 -48q-100 0 -158.5 23t-99.5 61l-6 -8q6 -12 6 -76v-227q0 -70 164 -69v-54h-453v54q111 0 111 61v1388 q0 164 -133 164zM332 350q6 -61 18 -113.5t38 -91.5t68 -61.5t109 -22.5q63 0 108.5 29t73 77t40 108.5t12.5 123.5q0 61 -16.5 127t-49.5 118t-83 86t-118 34q-74 0 -114.5 -39t-60 -90t-22.5 -101.5t-3 -72.5v-111z" />
<glyph unicode="&#xff;" horiz-adv-x="890" d="M-4 772v62h422v-62h-41q-76 0 -76 -47q2 -6 4 -16t4 -23.5t6 -30.5l211 -452l164 422q8 39 12.5 58t4.5 28q0 61 -134 61v62h351v-62q-86 0 -117 -70l-248 -622q-10 -20 -28.5 -60t-43 -89.5t-55.5 -100.5t-69.5 -93t-84 -68.5t-96.5 -26.5q-109 0 -108 100q0 102 78 102 q37 0 49 -17t17 -37.5t12.5 -38t31.5 -17.5q14 0 39 26.5t50.5 66.5t48 88t32.5 93l-319 684q-29 80 -117 80zM162 1225q0 117 119 116q109 0 108 -116q1 -125 -116 -125q-111 0 -111 125zM584 1225q0 117 117 116q111 0 110 -116q1 -125 -116 -125q-111 0 -111 125z" />
<glyph unicode="&#x152;" horiz-adv-x="2166" d="M84 670q0 135 47 263t135 227.5t212 159.5t276 60q57 0 147 -22h1112l17 -383l-62 -8q-20 113 -57 174t-90.5 90t-120 34t-146.5 5h-55q-156 0 -156 -92v-367q0 -61 48 -61h69q51 0 95 5t78 26.5t55.5 65.5t27.5 120h80v-531h-80q-6 76 -22.5 120t-46 67.5t-75.5 31 t-112 7.5h-24q-92 0 -93 -68v-391q0 -117 164 -117h62q129 0 207.5 19.5t128 61.5t79 105.5t60.5 149.5l57 -16l-57 -406h-1096q-78 -31 -194 -31q-145 0 -268.5 54.5t-212.5 149.5t-139 223t-50 274zM317 686q0 -135 27 -252t82 -203t141 -135t203 -49q115 0 192.5 48 t126 132t70 198t21.5 245q0 123 -20.5 237.5t-72 203.5t-135.5 143.5t-213 54.5q-117 0 -197.5 -51.5t-131 -137.5t-72 -198.5t-21.5 -235.5z" />
<glyph unicode="&#x153;" horiz-adv-x="1548" d="M47 406q0 106 35 193t94.5 148.5t139 94t169.5 32.5q106 0 187.5 -47t134.5 -125q53 78 128 125t179 47q51 0 111.5 -15t116 -57t96.5 -114t53 -182q0 -29 -8 -45h-547q-39 0 -39 -31q0 -74 20.5 -138.5t58.5 -113.5t91 -77.5t119 -28.5q86 0 147.5 49t108.5 115l49 -33 q-55 -115 -145.5 -178.5t-215.5 -63.5q-119 0 -199.5 47t-127.5 123q-57 -84 -141 -127t-185 -43q-96 0 -176 36t-136 96.5t-87 141t-31 171.5zM238 492q0 -68 8 -149t33.5 -149.5t74.5 -115.5t131 -47q80 0 126 35.5t71 85t32 102.5t7 88q0 68 -8 148.5t-34 149.5t-74 116 t-128 47q-82 0 -129 -36t-71.5 -85t-31.5 -102.5t-7 -87.5zM897 547q0 -25 47 -25h264q86 0 86 86q-8 78 -54 136.5t-134 58.5q-47 0 -86 -21.5t-66.5 -57.5t-42 -82t-14.5 -95z" />
<glyph unicode="&#x178;" horiz-adv-x="1282" d="M-23 1294v64h560v-64q-147 0 -148 -69q0 -16 8.5 -30.5t24.5 -41.5l289 -483l264 475q6 20 10 42.5t4 45.5q0 61 -164 61v64h475v-64q-106 0 -161 -77l-383 -656v-414q0 -86 202 -86v-61h-622v61q209 0 209 95v399l-342 567q-104 172 -226 172zM358 1749q0 117 119 116 q109 0 108 -116q1 -125 -116 -125q-111 0 -111 125zM780 1749q0 117 117 116q111 0 110 -116q1 -125 -116 -125q-111 0 -111 125z" />
<glyph unicode="&#x2c6;" horiz-adv-x="690" d="M72 1081l274 224l275 -226l-80 -55l-195 113l-203 -113z" />
<glyph unicode="&#x2dc;" horiz-adv-x="849" d="M72 1102q10 41 34.5 73.5t57.5 56t67.5 37t67.5 13.5q61 0 97 -15.5t61.5 -35t50 -34.5t65.5 -15q37 0 64 14t57 78l86 -37q-23 -84 -85 -133t-140 -49q-43 0 -79 15t-68.5 34.5t-63.5 35t-63 15.5q-76 0 -131 -96z" />
<glyph unicode="&#x2000;" horiz-adv-x="932" />
<glyph unicode="&#x2001;" horiz-adv-x="1865" />
<glyph unicode="&#x2002;" horiz-adv-x="932" />
<glyph unicode="&#x2003;" horiz-adv-x="1865" />
<glyph unicode="&#x2004;" horiz-adv-x="621" />
<glyph unicode="&#x2005;" horiz-adv-x="466" />
<glyph unicode="&#x2006;" horiz-adv-x="310" />
<glyph unicode="&#x2007;" horiz-adv-x="310" />
<glyph unicode="&#x2008;" horiz-adv-x="233" />
<glyph unicode="&#x2009;" horiz-adv-x="373" />
<glyph unicode="&#x200a;" horiz-adv-x="103" />
<glyph unicode="&#x2010;" horiz-adv-x="620" d="M68 461v125h485v-125h-485z" />
<glyph unicode="&#x2011;" horiz-adv-x="620" d="M68 461v125h485v-125h-485z" />
<glyph unicode="&#x2012;" horiz-adv-x="620" d="M68 461v125h485v-125h-485z" />
<glyph unicode="&#x2013;" horiz-adv-x="909" d="M68 461v125h772v-125h-772z" />
<glyph unicode="&#x2014;" horiz-adv-x="1531" d="M68 461v125h1394v-125h-1394z" />
<glyph unicode="&#x2018;" horiz-adv-x="440" d="M68 1042q0 125 69.5 215.5t202.5 159.5l31 -47q-68 -43 -104 -80t-52 -65.5t-19 -53t-3 -43.5q0 -47 49 -47q115 0 114 -102q0 -131 -125 -131q-164 0 -163 194z" />
<glyph unicode="&#x2019;" horiz-adv-x="440" d="M68 895q68 43 104.5 79t53 65.5t19.5 53t3 44.5q0 47 -47 47q-117 0 -117 100q0 133 125 133q162 0 162 -194q0 -125 -69 -214t-202 -161z" />
<glyph unicode="&#x201a;" horiz-adv-x="440" d="M68 -281q68 43 104.5 79t53 66t19.5 53.5t3 43.5q0 47 -47 47q-117 0 -117 103q0 131 125 131q162 0 162 -195q0 -125 -69 -215t-202 -160z" />
<glyph unicode="&#x201c;" horiz-adv-x="790" d="M68 1042q0 125 69.5 215.5t202.5 159.5l31 -47q-68 -43 -104 -80t-52 -65.5t-19 -53t-3 -43.5q0 -47 49 -47q115 0 114 -102q0 -131 -125 -131q-164 0 -163 194zM420 1042q0 125 68.5 215.5t201.5 159.5l33 -47q-68 -43 -103.5 -80t-52 -65.5t-19.5 -53t-3 -43.5 q0 -47 47 -47q117 0 117 -102q0 -131 -125 -131q-164 0 -164 194z" />
<glyph unicode="&#x201d;" horiz-adv-x="790" d="M68 895q68 43 104.5 79t53 65.5t19.5 53t3 44.5q0 47 -47 47q-117 0 -117 100q0 133 125 133q162 0 162 -194q0 -125 -69 -214t-202 -161zM420 895q68 43 103.5 79t52 65.5t19.5 53t3 44.5q0 47 -45 47q-119 0 -119 100q0 133 127 133q162 0 162 -194q0 -125 -69.5 -214 t-202.5 -161z" />
<glyph unicode="&#x201e;" horiz-adv-x="790" d="M68 -281q68 43 104.5 79t53 66t19.5 53.5t3 43.5q0 47 -47 47q-117 0 -117 103q0 131 125 131q162 0 162 -195q0 -125 -69 -215t-202 -160zM420 -281q68 43 103.5 79t52 66t19.5 53.5t3 43.5q0 47 -45 47q-119 0 -119 103q0 131 127 131q162 0 162 -195 q0 -125 -69.5 -215t-202.5 -160z" />
<glyph unicode="&#x2022;" horiz-adv-x="593" d="M68 641q0 223 237 223q221 0 221 -223q0 -221 -221 -221q-238 0 -237 221z" />
<glyph unicode="&#x2026;" horiz-adv-x="1736" d="M170 102q0 133 141 134q131 0 131 -134q0 -133 -131 -133q-141 0 -141 133zM723 102q0 133 139 134q133 -1 133 -134t-133 -133q-139 0 -139 133zM1268 102q0 133 141 134q133 -1 133 -134t-133 -133q-141 0 -141 133z" />
<glyph unicode="&#x202f;" horiz-adv-x="373" />
<glyph unicode="&#x2039;" horiz-adv-x="655" d="M94 510l371 340l33 -41l-219 -299l219 -303l-33 -37z" />
<glyph unicode="&#x203a;" horiz-adv-x="624" d="M94 209l217 299l-217 305l35 37l369 -342l-369 -338z" />
<glyph unicode="&#x205f;" horiz-adv-x="466" />
<glyph unicode="&#x20ac;" horiz-adv-x="1320" d="M29 483l47 95h108v141h-155l47 92h117q25 125 83 229.5t142 180t187.5 117.5t217.5 42q92 0 173 -13t141.5 -43t95.5 -74t35 -105q0 -41 -34 -71t-75 -30q-84 0 -84 95q0 4 3 24.5t3 38.5q0 35 -18.5 54.5t-51 29.5t-78.5 12t-102 2q-102 0 -176.5 -39.5t-126 -107.5 t-80 -157t-36.5 -185h561l-31 -92h-530q0 -37 1 -72t7 -69h475l-31 -95h-430q20 -96 56 -174t90.5 -133t126 -85t165.5 -30q98 0 176 29t144 105l61 -54q-147 -172 -430 -172q-127 0 -230.5 36t-183 103.5t-132 163t-76.5 211.5h-172z" />
<glyph unicode="&#x2122;" horiz-adv-x="1480" d="M68 1165l26 199q45 -6 80 -6h332q39 0 88 6v-197l-41 -4q-10 135 -131 135q-37 0 -37 -20v-397q0 -72 94 -72v-43h-289v43q94 0 95 72v397q0 25 -35 25q-106 0 -137 -150zM690 766v43q82 0 86 74v385q0 45 -86 45v45h193l170 -426l161 426h189v-45q-72 0 -72 -45v-398 q0 -61 80 -61v-43h-262v43q70 0 70 55v357l-170 -455h-35l-185 451v-338q0 -70 86 -70v-43h-225z" />
<glyph unicode="&#x25fc;" horiz-adv-x="829" d="M0 0v829h829v-829h-829z" />
<glyph unicode="&#xfb01;" horiz-adv-x="1243" d="M14 750v84h156q31 0 31 55q0 135 36.5 233.5t101 163t154 95t191.5 30.5q41 0 94 -10t100.5 -40t80 -82t32.5 -136q0 -20 -7 -42t-20.5 -40.5t-33 -29.5t-43.5 -11q-43 0 -74 18.5t-31 59.5q0 8 1 22.5t7.5 28.5t17.5 28.5t32 22.5q-16 74 -70.5 100.5t-132.5 26.5 q-72 0 -122 -32.5t-82 -84t-47 -111t-15 -110.5v-100q0 -55 32 -55h617v-656q0 -117 156 -117v-61h-467v61q139 0 139 125v408q0 162 -125 162h-320q-33 0 -32 -23v-569q0 -102 182 -103v-61h-485v61q133 0 133 103v561q0 25 -25 25h-162z" />
<glyph unicode="&#xfb02;" horiz-adv-x="1259" d="M12 750v84h158q31 0 31 55q0 150 18.5 250t73.5 160.5t155.5 86t264.5 25.5h323v-1264q0 -86 156 -86v-61h-469v61q141 0 141 95v1038q0 66 -35.5 99.5t-128.5 33.5h-116q-74 0 -117 -29.5t-64.5 -78t-26.5 -108.5t-5 -122v-100q0 -55 32 -55h297l-10 -78h-287 q-33 0 -32 -23v-569q0 -102 182 -103v-61h-485v61q133 0 133 103v561q0 25 -25 25h-164z" />
<glyph unicode="&#xfb03;" horiz-adv-x="1894" d="M12 750v84h158q31 0 31 55q0 115 18.5 211t61.5 164.5t113.5 107.5t172.5 39q164 0 164 -135q0 -39 -26.5 -64.5t-63.5 -25.5q-74 0 -74 59q0 33 17 49q-25 33 -64 33q-47 0 -75.5 -39t-45 -92t-22.5 -110.5t-6 -96.5v-100q0 -55 32 -55h416q33 0 33 55q0 135 37 233.5 t101.5 163t153.5 95t191 30.5q41 0 94.5 -10t101.5 -40t81 -82t33 -136q0 -20 -7.5 -42t-20.5 -40.5t-33.5 -29.5t-45.5 -11q-41 0 -73.5 18.5t-32.5 59.5q0 8 1 22.5t7 28.5t17 28.5t34 22.5q-16 74 -70.5 100.5t-132.5 26.5q-72 0 -121 -32.5t-81.5 -84t-47 -111 t-14.5 -110.5v-100q0 -55 31 -55h616v-656q0 -117 156 -117v-61h-467v61q139 0 139 125v408q0 162 -125 162h-319q-31 0 -31 -23v-569q0 -102 178 -103v-61h-481v61q131 0 131 103v561q0 25 -25 25h-424q-33 0 -32 -25v-561q0 -102 182 -103v-61h-485v61q133 0 133 103v561 q0 25 -25 25h-164z" />
<glyph unicode="&#xfb04;" horiz-adv-x="1908" d="M12 750v84h158q31 0 31 55q0 115 18.5 211t61.5 164.5t113.5 107.5t172.5 39q164 0 164 -135q0 -39 -26.5 -64.5t-63.5 -25.5q-74 0 -74 59q0 33 17 49q-25 33 -64 33q-47 0 -75.5 -39t-45 -92t-22.5 -110.5t-6 -96.5v-100q0 -55 32 -55h414q33 0 33 55q0 150 18.5 250 t73.5 160.5t155.5 86t264.5 25.5h321v-1264q0 -86 158 -86v-61h-469v61q141 0 141 95v1038q0 66 -34.5 99.5t-128.5 33.5h-117q-74 0 -117 -29.5t-63.5 -78t-25.5 -108.5t-5 -122v-100q0 -55 31 -55h297l-9 -78h-288q-31 0 -31 -23v-569q0 -102 180 -103v-61h-483v61 q131 0 131 103v569q0 23 -25 23h-422q-33 0 -32 -23v-569q0 -102 182 -103v-61h-485v61q133 0 133 103v561q0 25 -25 25h-164z" />
</font>
</defs>
</svg>
